<svg width="40" height="35" viewBox="0 0 40 35" fill="none" xmlns="http://www.w3.org/2000/svg">
<path d="M35 4.83848H29.8063L27.2562 1.02932C27.1206 0.821054 26.9343 0.650257 26.7147 0.532752C26.4951 0.415248 26.2493 0.354837 26 0.357118H14C13.7507 0.354837 13.5049 0.415248 13.2853 0.532752C13.0657 0.650257 12.8794 0.821054 12.7438 1.02932L10.1937 4.83848H5C3.80805 4.84339 2.66632 5.31711 1.82347 6.15647C0.980626 6.99582 0.504936 8.13282 0.5 9.31983V30.2328C0.504936 31.4199 0.980626 32.5569 1.82347 33.3962C2.66632 34.2356 3.80805 34.7093 5 34.7142H35C36.192 34.7093 37.3337 34.2356 38.1765 33.3962C39.0194 32.5569 39.4951 31.4199 39.5 30.2328V9.31983C39.4951 8.13282 39.0194 6.99582 38.1765 6.15647C37.3337 5.31711 36.192 4.84339 35 4.83848ZM36.5 30.2328C36.5 30.629 36.342 31.009 36.0607 31.2891C35.7794 31.5692 35.3978 31.7266 35 31.7266H5C4.60218 31.7266 4.22064 31.5692 3.93934 31.2891C3.65804 31.009 3.5 30.629 3.5 30.2328V9.31983C3.5 8.92366 3.65804 8.54371 3.93934 8.26357C4.22064 7.98343 4.60218 7.82605 5 7.82605H11C11.2493 7.82833 11.4951 7.76792 11.7147 7.65041C11.9343 7.53291 12.1206 7.36211 12.2562 7.15384L14.8063 3.34469H25.1937L27.7438 7.15384C27.8794 7.36211 28.0657 7.53291 28.2853 7.65041C28.5049 7.76792 28.7507 7.82833 29 7.82605H35C35.3978 7.82605 35.7794 7.98343 36.0607 8.26357C36.342 8.54371 36.5 8.92366 36.5 9.31983V30.2328ZM20 10.8136C18.3683 10.8136 16.7733 11.2955 15.4165 12.1982C14.0598 13.101 13.0024 14.3841 12.378 15.8854C11.7536 17.3866 11.5902 19.0386 11.9085 20.6323C12.2269 22.226 13.0126 23.6899 14.1664 24.8389C15.3202 25.9879 16.7902 26.7704 18.3905 27.0874C19.9908 27.4044 21.6496 27.2417 23.1571 26.6199C24.6646 25.998 25.9531 24.945 26.8596 23.5939C27.7661 22.2428 28.25 20.6544 28.25 19.0294C28.25 16.8505 27.3808 14.7607 25.8336 13.22C24.2865 11.6792 22.188 10.8136 20 10.8136ZM20 24.2577C18.9616 24.2577 17.9466 23.9511 17.0833 23.3766C16.2199 22.8021 15.547 21.9855 15.1496 21.0302C14.7523 20.0749 14.6483 19.0236 14.8509 18.0095C15.0534 16.9953 15.5535 16.0637 16.2877 15.3325C17.0219 14.6013 17.9574 14.1034 18.9758 13.9017C19.9942 13.6999 21.0498 13.8035 22.0091 14.1992C22.9684 14.5949 23.7883 15.265 24.3652 16.1248C24.9421 16.9846 25.25 17.9954 25.25 19.0294C25.2451 20.4145 24.6903 21.7415 23.7069 22.7209C22.7234 23.7004 21.3909 24.2528 20 24.2577Z" fill="black"/>
</svg>
