<svg width="25" height="27" viewBox="0 0 25 27" fill="none" xmlns="http://www.w3.org/2000/svg">
<g clip-path="url(#clip0_1_148)">
<path d="M18.4388 17.6263C21.6087 15.87 24.0117 14.5318 24.2189 14.4277C24.8815 14.0722 25.5657 13.1311 24.2189 12.4002C23.784 12.1703 21.4427 10.8737 18.4388 9.20154L14.2745 13.4452L18.4388 17.6262V17.6263Z" fill="#FFD900"/>
<path d="M14.2745 13.4452L1.01501 26.9297C1.32625 26.9713 1.67761 26.888 2.09187 26.6582C2.9616 26.1779 12.1815 21.0972 18.4387 17.6273L14.2745 13.4452Z" fill="#F43249"/>
<path d="M14.2745 13.4452L18.4387 9.22246C18.4387 9.22246 3.02446 0.734111 2.09185 0.233035C1.74048 0.0230455 1.34673 -0.0393304 0.994385 0.0230455L14.2745 13.4452Z" fill="#00EE76"/>
<path d="M14.2745 13.4452L0.994434 0.0230713C0.455469 0.148809 0 0.62929 0 1.61193V25.3409C0 26.2403 0.352441 26.8881 1.01504 26.9505L14.2745 13.4452Z" fill="#00D3FF"/>
</g>
<defs>
<clipPath id="clip0_1_148">
<rect width="25" height="27" fill="white"/>
</clipPath>
</defs>
</svg>
