<svg width="41" height="41" viewBox="0 0 41 41" fill="none" xmlns="http://www.w3.org/2000/svg">
<rect width="41" height="41" rx="14" fill="white" fill-opacity="0.79"/>
<path d="M20.2672 22.2152L13.4493 29.0331C13.1942 29.2882 12.8695 29.4158 12.4753 29.4158C12.081 29.4158 11.7564 29.2882 11.5013 29.0331C11.2462 28.778 11.1187 28.4534 11.1187 28.0591C11.1187 27.6649 11.2462 27.3402 11.5013 27.0851L18.3192 20.2672L11.5013 13.4493C11.2462 13.1942 11.1187 12.8695 11.1187 12.4753C11.1187 12.081 11.2462 11.7564 11.5013 11.5013C11.7564 11.2462 12.081 11.1187 12.4753 11.1187C12.8695 11.1187 13.1942 11.2462 13.4493 11.5013L20.2672 18.3192L27.0851 11.5013C27.3402 11.2462 27.6649 11.1187 28.0591 11.1187C28.4534 11.1187 28.778 11.2462 29.0331 11.5013C29.2882 11.7564 29.4158 12.081 29.4158 12.4753C29.4158 12.8695 29.2882 13.1942 29.0331 13.4493L22.2152 20.2672L29.0331 27.0851C29.2882 27.3402 29.4158 27.6649 29.4158 28.0591C29.4158 28.4534 29.2882 28.778 29.0331 29.0331C28.778 29.2882 28.4534 29.4158 28.0591 29.4158C27.6649 29.4158 27.3402 29.2882 27.0851 29.0331L20.2672 22.2152Z" fill="#41312A"/>
</svg>
