<svg width="193" height="10" viewBox="0 0 193 10" fill="none" xmlns="http://www.w3.org/2000/svg">
<path d="M4.07812 7.91149L5.75856 4.91888L6.59877 3.42257L7.43899 1.92627L8.78327 4.91888L10.1276 7.91149L13.4883 1.92627" stroke="#F1EAE7" stroke-opacity="0.49"/>
<path d="M0.875 2.78937L1.27518 2.19727L2.61947 5.18988L3.96375 8.18249L7.32454 2.19727" stroke="#F1EAE7" stroke-opacity="0.49"/>
<path d="M10.1274 7.91149L11.8079 4.91888L12.6481 3.42257L13.4883 1.92627L14.8326 4.91888L16.1769 7.91149L19.5377 1.92627" stroke="#F1EAE7" stroke-opacity="0.49"/>
<path d="M16.1777 7.91149L17.8582 4.91888L18.6984 3.42257L19.5386 1.92627L20.8829 4.91888L22.2272 7.91149L25.588 1.92627" stroke="#F1EAE7" stroke-opacity="0.49"/>
<path d="M22.2271 7.91149L23.9075 4.91888L24.7477 3.42257L25.5879 1.92627L26.9322 4.91888L28.2765 7.91149L31.6373 1.92627" stroke="#F1EAE7" stroke-opacity="0.49"/>
<path d="M28.2764 7.91149L29.9568 4.91888L30.797 3.42257L31.6372 1.92627L32.9815 4.91888L34.3258 7.91149L37.6866 1.92627" stroke="#F1EAE7" stroke-opacity="0.49"/>
<path d="M34.3257 7.91149L36.0061 4.91888L36.8463 3.42257L37.6865 1.92627L39.0308 4.91888L40.3751 7.91149L43.7359 1.92627" stroke="#F1EAE7" stroke-opacity="0.49"/>
<path d="M40.375 7.91149L42.0554 4.91888L42.8956 3.42257L43.7359 1.92627L45.0801 4.91888L46.4244 7.91149L49.7852 1.92627" stroke="#F1EAE7" stroke-opacity="0.49"/>
<path d="M46.4248 7.91149L48.1052 4.91888L48.9455 3.42257L49.7857 1.92627L51.13 4.91888L52.4742 7.91149L55.835 1.92627" stroke="#F1EAE7" stroke-opacity="0.49"/>
<path d="M52.4736 7.91149L54.1541 4.91888L54.9943 3.42257L55.8345 1.92627L57.1788 4.91888L58.5231 7.91149L61.8839 1.92627" stroke="#F1EAE7" stroke-opacity="0.49"/>
<path d="M58.5234 7.91149L60.2039 4.91888L61.0441 3.42257L61.8843 1.92627L63.2286 4.91888L64.5729 7.91149L67.9337 1.92627" stroke="#F1EAE7" stroke-opacity="0.49"/>
<path d="M64.5728 7.91149L66.2532 4.91888L67.0934 3.42257L67.9336 1.92627L69.2779 4.91888L70.6222 7.91149L73.983 1.92627" stroke="#F1EAE7" stroke-opacity="0.49"/>
<path d="M70.6226 7.91149L72.303 4.91888L73.1432 3.42257L73.9834 1.92627L75.3277 4.91888L76.672 7.91149L80.0328 1.92627" stroke="#F1EAE7" stroke-opacity="0.49"/>
<path d="M76.6714 7.91149L78.3518 4.91888L79.192 3.42257L80.0323 1.92627L81.3765 4.91888L82.7208 7.91149L86.0816 1.92627" stroke="#F1EAE7" stroke-opacity="0.49"/>
<path d="M82.7212 7.91149L84.4016 4.91888L85.2418 3.42257L86.0821 1.92627L87.4263 4.91888L88.7706 7.91149L92.1314 1.92627" stroke="#F1EAE7" stroke-opacity="0.49"/>
<path d="M88.7705 7.91149L90.4509 4.91888L91.2912 3.42257L92.1314 1.92627L93.4757 4.91888L94.8199 7.91149L98.1807 1.92627" stroke="#F1EAE7" stroke-opacity="0.49"/>
<path d="M94.8203 7.91149L96.5007 4.91888L97.341 3.42257L98.1812 1.92627L99.5255 4.91888L100.87 7.91149L104.231 1.92627" stroke="#F1EAE7" stroke-opacity="0.49"/>
<path d="M100.869 7.91149L102.55 4.91888L103.39 3.42257L104.23 1.92627L105.574 4.91888L106.919 7.91149L110.279 1.92627" stroke="#F1EAE7" stroke-opacity="0.49"/>
<path d="M106.919 7.91149L108.599 4.91888L109.44 3.42257L110.28 1.92627L111.624 4.91888L112.968 7.91149L116.329 1.92627" stroke="#F1EAE7" stroke-opacity="0.49"/>
<path d="M112.968 7.91149L114.649 4.91888L115.489 3.42257L116.329 1.92627L117.673 4.91888L119.018 7.91149L122.378 1.92627" stroke="#F1EAE7" stroke-opacity="0.49"/>
<path d="M119.018 7.91149L120.698 4.91888L121.538 3.42257L122.378 1.92627L123.723 4.91888L125.067 7.91149L128.428 1.92627" stroke="#F1EAE7" stroke-opacity="0.49"/>
<path d="M125.067 7.91149L126.747 4.91888L127.588 3.42257L128.428 1.92627L129.772 4.91888L131.116 7.91149L134.477 1.92627" stroke="#F1EAE7" stroke-opacity="0.49"/>
<path d="M131.116 7.91149L132.797 4.91888L133.637 3.42257L134.477 1.92627L135.821 4.91888L137.166 7.91149L140.526 1.92627" stroke="#F1EAE7" stroke-opacity="0.49"/>
<path d="M137.166 7.91149L138.846 4.91888L139.687 3.42257L140.527 1.92627L141.871 4.91888L143.215 7.91149L146.576 1.92627" stroke="#F1EAE7" stroke-opacity="0.49"/>
<path d="M143.215 7.91149L144.896 4.91888L145.736 3.42257L146.576 1.92627L147.92 4.91888L149.265 7.91149L152.626 1.92627" stroke="#F1EAE7" stroke-opacity="0.49"/>
<path d="M149.265 7.91149L150.945 4.91888L151.785 3.42257L152.626 1.92627L153.97 4.91888L155.314 7.91149L158.675 1.92627" stroke="#F1EAE7" stroke-opacity="0.49"/>
<path d="M155.314 7.91149L156.994 4.91888L157.835 3.42257L158.675 1.92627L160.019 4.91888L161.363 7.91149L164.724 1.92627" stroke="#F1EAE7" stroke-opacity="0.49"/>
<path d="M161.364 7.91149L163.044 4.91888L163.884 3.42257L164.725 1.92627L166.069 4.91888L167.413 7.91149L170.774 1.92627" stroke="#F1EAE7" stroke-opacity="0.49"/>
<path d="M167.413 7.91149L169.094 4.91888L169.934 3.42257L170.774 1.92627L172.118 4.91888L173.463 7.91149L176.823 1.92627" stroke="#F1EAE7" stroke-opacity="0.49"/>
<path d="M173.462 7.91149L175.143 4.91888L175.983 3.42257L176.823 1.92627L178.168 4.91888L179.512 7.91149L182.873 1.92627" stroke="#F1EAE7" stroke-opacity="0.49"/>
<path d="M179.512 7.91149L181.192 4.91888L182.032 3.42257L182.873 1.92627L184.217 4.91888L185.561 7.91149L188.922 1.92627" stroke="#F1EAE7" stroke-opacity="0.49"/>
<path d="M185.612 8.18249L187.292 5.18988L188.132 3.69357L188.973 2.19727L190.317 5.18988L191.829 8.18249" stroke="#F1EAE7" stroke-opacity="0.49"/>
</svg>
