<svg width="62" height="62" viewBox="0 0 62 62" fill="none" xmlns="http://www.w3.org/2000/svg">
<rect width="60.3947" height="60.3947" transform="translate(0.809082 0.921143)" fill="white"/>
<path d="M5.64062 5.75269H8.05641V8.16848H5.64062V5.75269Z" fill="black"/>
<path d="M8.05641 5.75269H10.4722V8.16848H8.05641V5.75269Z" fill="black"/>
<path d="M10.4722 5.75269H12.888V8.16848H10.4722V5.75269Z" fill="black"/>
<path d="M12.888 5.75269H15.3038V8.16848H12.888V5.75269Z" fill="black"/>
<path d="M15.3038 5.75269H17.7196V8.16848H15.3038V5.75269Z" fill="black"/>
<path d="M17.7196 5.75269H20.1354V8.16848H17.7196V5.75269Z" fill="black"/>
<path d="M20.1354 5.75269H22.5512V8.16848H20.1354V5.75269Z" fill="black"/>
<path d="M27.3827 5.75269H29.7985V8.16848H27.3827V5.75269Z" fill="black"/>
<path d="M29.7985 5.75269H32.2143V8.16848H29.7985V5.75269Z" fill="black"/>
<path d="M32.2143 5.75269H34.6301V8.16848H32.2143V5.75269Z" fill="black"/>
<path d="M34.6301 5.75269H37.0459V8.16848H34.6301V5.75269Z" fill="black"/>
<path d="M39.4617 5.75269H41.8775V8.16848H39.4617V5.75269Z" fill="black"/>
<path d="M41.8775 5.75269H44.2933V8.16848H41.8775V5.75269Z" fill="black"/>
<path d="M44.2933 5.75269H46.709V8.16848H44.2933V5.75269Z" fill="black"/>
<path d="M46.709 5.75269H49.1248V8.16848H46.709V5.75269Z" fill="black"/>
<path d="M49.1248 5.75269H51.5406V8.16848H49.1248V5.75269Z" fill="black"/>
<path d="M51.5406 5.75269H53.9564V8.16848H51.5406V5.75269Z" fill="black"/>
<path d="M53.9564 5.75269H56.3722V8.16848H53.9564V5.75269Z" fill="black"/>
<path d="M5.64062 8.16848H8.05641V10.5843H5.64062V8.16848Z" fill="black"/>
<path d="M20.1354 8.16848H22.5512V10.5843H20.1354V8.16848Z" fill="black"/>
<path d="M27.3827 8.16848H29.7985V10.5843H27.3827V8.16848Z" fill="black"/>
<path d="M29.7985 8.16848H32.2143V10.5843H29.7985V8.16848Z" fill="black"/>
<path d="M32.2143 8.16848H34.6301V10.5843H32.2143V8.16848Z" fill="black"/>
<path d="M39.4617 8.16848H41.8775V10.5843H39.4617V8.16848Z" fill="black"/>
<path d="M53.9564 8.16848H56.3722V10.5843H53.9564V8.16848Z" fill="black"/>
<path d="M5.64062 10.5843H8.05641V13.0001H5.64062V10.5843Z" fill="black"/>
<path d="M10.4722 10.5843H12.888V13.0001H10.4722V10.5843Z" fill="black"/>
<path d="M12.888 10.5843H15.3038V13.0001H12.888V10.5843Z" fill="black"/>
<path d="M15.3038 10.5843H17.7196V13.0001H15.3038V10.5843Z" fill="black"/>
<path d="M20.1354 10.5843H22.5512V13.0001H20.1354V10.5843Z" fill="black"/>
<path d="M29.7985 10.5843H32.2143V13.0001H29.7985V10.5843Z" fill="black"/>
<path d="M34.6301 10.5843H37.0459V13.0001H34.6301V10.5843Z" fill="black"/>
<path d="M39.4617 10.5843H41.8775V13.0001H39.4617V10.5843Z" fill="black"/>
<path d="M44.2933 10.5843H46.709V13.0001H44.2933V10.5843Z" fill="black"/>
<path d="M46.709 10.5843H49.1248V13.0001H46.709V10.5843Z" fill="black"/>
<path d="M49.1248 10.5843H51.5406V13.0001H49.1248V10.5843Z" fill="black"/>
<path d="M53.9564 10.5843H56.3722V13.0001H53.9564V10.5843Z" fill="black"/>
<path d="M5.64062 13.0001H8.05641V15.4158H5.64062V13.0001Z" fill="black"/>
<path d="M10.4722 13.0001H12.888V15.4158H10.4722V13.0001Z" fill="black"/>
<path d="M12.888 13.0001H15.3038V15.4158H12.888V13.0001Z" fill="black"/>
<path d="M15.3038 13.0001H17.7196V15.4158H15.3038V13.0001Z" fill="black"/>
<path d="M20.1354 13.0001H22.5512V15.4158H20.1354V13.0001Z" fill="black"/>
<path d="M29.7985 13.0001H32.2143V15.4158H29.7985V13.0001Z" fill="black"/>
<path d="M32.2143 13.0001H34.6301V15.4158H32.2143V13.0001Z" fill="black"/>
<path d="M39.4617 13.0001H41.8775V15.4158H39.4617V13.0001Z" fill="black"/>
<path d="M44.2933 13.0001H46.709V15.4158H44.2933V13.0001Z" fill="black"/>
<path d="M46.709 13.0001H49.1248V15.4158H46.709V13.0001Z" fill="black"/>
<path d="M49.1248 13.0001H51.5406V15.4158H49.1248V13.0001Z" fill="black"/>
<path d="M53.9564 13.0001H56.3722V15.4158H53.9564V13.0001Z" fill="black"/>
<path d="M5.64062 15.4158H8.05641V17.8316H5.64062V15.4158Z" fill="black"/>
<path d="M10.4722 15.4158H12.888V17.8316H10.4722V15.4158Z" fill="black"/>
<path d="M12.888 15.4158H15.3038V17.8316H12.888V15.4158Z" fill="black"/>
<path d="M15.3038 15.4158H17.7196V17.8316H15.3038V15.4158Z" fill="black"/>
<path d="M20.1354 15.4158H22.5512V17.8316H20.1354V15.4158Z" fill="black"/>
<path d="M24.9669 15.4158H27.3827V17.8316H24.9669V15.4158Z" fill="black"/>
<path d="M34.6301 15.4158H37.0459V17.8316H34.6301V15.4158Z" fill="black"/>
<path d="M39.4617 15.4158H41.8775V17.8316H39.4617V15.4158Z" fill="black"/>
<path d="M44.2933 15.4158H46.709V17.8316H44.2933V15.4158Z" fill="black"/>
<path d="M46.709 15.4158H49.1248V17.8316H46.709V15.4158Z" fill="black"/>
<path d="M49.1248 15.4158H51.5406V17.8316H49.1248V15.4158Z" fill="black"/>
<path d="M53.9564 15.4158H56.3722V17.8316H53.9564V15.4158Z" fill="black"/>
<path d="M5.64062 17.8316H8.05641V20.2474H5.64062V17.8316Z" fill="black"/>
<path d="M20.1354 17.8316H22.5512V20.2474H20.1354V17.8316Z" fill="black"/>
<path d="M27.3827 17.8316H29.7985V20.2474H27.3827V17.8316Z" fill="black"/>
<path d="M32.2143 17.8316H34.6301V20.2474H32.2143V17.8316Z" fill="black"/>
<path d="M39.4617 17.8316H41.8775V20.2474H39.4617V17.8316Z" fill="black"/>
<path d="M53.9564 17.8316H56.3722V20.2474H53.9564V17.8316Z" fill="black"/>
<path d="M5.64062 20.2474H8.05641V22.6632H5.64062V20.2474Z" fill="black"/>
<path d="M8.05641 20.2474H10.4722V22.6632H8.05641V20.2474Z" fill="black"/>
<path d="M10.4722 20.2474H12.888V22.6632H10.4722V20.2474Z" fill="black"/>
<path d="M12.888 20.2474H15.3038V22.6632H12.888V20.2474Z" fill="black"/>
<path d="M15.3038 20.2474H17.7196V22.6632H15.3038V20.2474Z" fill="black"/>
<path d="M17.7196 20.2474H20.1354V22.6632H17.7196V20.2474Z" fill="black"/>
<path d="M20.1354 20.2474H22.5512V22.6632H20.1354V20.2474Z" fill="black"/>
<path d="M24.9669 20.2474H27.3827V22.6632H24.9669V20.2474Z" fill="black"/>
<path d="M29.7985 20.2474H32.2143V22.6632H29.7985V20.2474Z" fill="black"/>
<path d="M34.6301 20.2474H37.0459V22.6632H34.6301V20.2474Z" fill="black"/>
<path d="M39.4617 20.2474H41.8775V22.6632H39.4617V20.2474Z" fill="black"/>
<path d="M41.8775 20.2474H44.2933V22.6632H41.8775V20.2474Z" fill="black"/>
<path d="M44.2933 20.2474H46.709V22.6632H44.2933V20.2474Z" fill="black"/>
<path d="M46.709 20.2474H49.1248V22.6632H46.709V20.2474Z" fill="black"/>
<path d="M49.1248 20.2474H51.5406V22.6632H49.1248V20.2474Z" fill="black"/>
<path d="M51.5406 20.2474H53.9564V22.6632H51.5406V20.2474Z" fill="black"/>
<path d="M53.9564 20.2474H56.3722V22.6632H53.9564V20.2474Z" fill="black"/>
<path d="M24.9669 22.6632H27.3827V25.079H24.9669V22.6632Z" fill="black"/>
<path d="M27.3827 22.6632H29.7985V25.079H27.3827V22.6632Z" fill="black"/>
<path d="M10.4722 25.079H12.888V27.4948H10.4722V25.079Z" fill="black"/>
<path d="M12.888 25.079H15.3038V27.4948H12.888V25.079Z" fill="black"/>
<path d="M20.1354 25.079H22.5512V27.4948H20.1354V25.079Z" fill="black"/>
<path d="M22.5512 25.079H24.9669V27.4948H22.5512V25.079Z" fill="black"/>
<path d="M24.9669 25.079H27.3827V27.4948H24.9669V25.079Z" fill="black"/>
<path d="M27.3827 25.079H29.7985V27.4948H27.3827V25.079Z" fill="black"/>
<path d="M29.7985 25.079H32.2143V27.4948H29.7985V25.079Z" fill="black"/>
<path d="M37.0459 25.079H39.4617V27.4948H37.0459V25.079Z" fill="black"/>
<path d="M39.4617 25.079H41.8775V27.4948H39.4617V25.079Z" fill="black"/>
<path d="M44.2933 25.079H46.709V27.4948H44.2933V25.079Z" fill="black"/>
<path d="M8.05641 27.4948H10.4722V29.9106H8.05641V27.4948Z" fill="black"/>
<path d="M10.4722 27.4948H12.888V29.9106H10.4722V27.4948Z" fill="black"/>
<path d="M15.3038 27.4948H17.7196V29.9106H15.3038V27.4948Z" fill="black"/>
<path d="M17.7196 27.4948H20.1354V29.9106H17.7196V27.4948Z" fill="black"/>
<path d="M22.5512 27.4948H24.9669V29.9106H22.5512V27.4948Z" fill="black"/>
<path d="M24.9669 27.4948H27.3827V29.9106H24.9669V27.4948Z" fill="black"/>
<path d="M37.0459 27.4948H39.4617V29.9106H37.0459V27.4948Z" fill="black"/>
<path d="M41.8775 27.4948H44.2933V29.9106H41.8775V27.4948Z" fill="black"/>
<path d="M49.1248 27.4948H51.5406V29.9106H49.1248V27.4948Z" fill="black"/>
<path d="M51.5406 27.4948H53.9564V29.9106H51.5406V27.4948Z" fill="black"/>
<path d="M53.9564 27.4948H56.3722V29.9106H53.9564V27.4948Z" fill="black"/>
<path d="M12.888 29.9106H15.3038V32.3264H12.888V29.9106Z" fill="black"/>
<path d="M15.3038 29.9106H17.7196V32.3264H15.3038V29.9106Z" fill="black"/>
<path d="M17.7196 29.9106H20.1354V32.3264H17.7196V29.9106Z" fill="black"/>
<path d="M20.1354 29.9106H22.5512V32.3264H20.1354V29.9106Z" fill="black"/>
<path d="M29.7985 29.9106H32.2143V32.3264H29.7985V29.9106Z" fill="black"/>
<path d="M34.6301 29.9106H37.0459V32.3264H34.6301V29.9106Z" fill="black"/>
<path d="M37.0459 29.9106H39.4617V32.3264H37.0459V29.9106Z" fill="black"/>
<path d="M39.4617 29.9106H41.8775V32.3264H39.4617V29.9106Z" fill="black"/>
<path d="M41.8775 29.9106H44.2933V32.3264H41.8775V29.9106Z" fill="black"/>
<path d="M44.2933 29.9106H46.709V32.3264H44.2933V29.9106Z" fill="black"/>
<path d="M46.709 29.9106H49.1248V32.3264H46.709V29.9106Z" fill="black"/>
<path d="M49.1248 29.9106H51.5406V32.3264H49.1248V29.9106Z" fill="black"/>
<path d="M51.5406 29.9106H53.9564V32.3264H51.5406V29.9106Z" fill="black"/>
<path d="M53.9564 29.9106H56.3722V32.3264H53.9564V29.9106Z" fill="black"/>
<path d="M8.05641 32.3264H10.4722V34.7422H8.05641V32.3264Z" fill="black"/>
<path d="M10.4722 32.3264H12.888V34.7422H10.4722V32.3264Z" fill="black"/>
<path d="M17.7196 32.3264H20.1354V34.7422H17.7196V32.3264Z" fill="black"/>
<path d="M22.5512 32.3264H24.9669V34.7422H22.5512V32.3264Z" fill="black"/>
<path d="M32.2143 32.3264H34.6301V34.7422H32.2143V32.3264Z" fill="black"/>
<path d="M34.6301 32.3264H37.0459V34.7422H34.6301V32.3264Z" fill="black"/>
<path d="M37.0459 32.3264H39.4617V34.7422H37.0459V32.3264Z" fill="black"/>
<path d="M39.4617 32.3264H41.8775V34.7422H39.4617V32.3264Z" fill="black"/>
<path d="M46.709 32.3264H49.1248V34.7422H46.709V32.3264Z" fill="black"/>
<path d="M51.5406 32.3264H53.9564V34.7422H51.5406V32.3264Z" fill="black"/>
<path d="M8.05641 34.7422H10.4722V37.1579H8.05641V34.7422Z" fill="black"/>
<path d="M10.4722 34.7422H12.888V37.1579H10.4722V34.7422Z" fill="black"/>
<path d="M15.3038 34.7422H17.7196V37.1579H15.3038V34.7422Z" fill="black"/>
<path d="M17.7196 34.7422H20.1354V37.1579H17.7196V34.7422Z" fill="black"/>
<path d="M20.1354 34.7422H22.5512V37.1579H20.1354V34.7422Z" fill="black"/>
<path d="M22.5512 34.7422H24.9669V37.1579H22.5512V34.7422Z" fill="black"/>
<path d="M24.9669 34.7422H27.3827V37.1579H24.9669V34.7422Z" fill="black"/>
<path d="M27.3827 34.7422H29.7985V37.1579H27.3827V34.7422Z" fill="black"/>
<path d="M29.7985 34.7422H32.2143V37.1579H29.7985V34.7422Z" fill="black"/>
<path d="M34.6301 34.7422H37.0459V37.1579H34.6301V34.7422Z" fill="black"/>
<path d="M37.0459 34.7422H39.4617V37.1579H37.0459V34.7422Z" fill="black"/>
<path d="M39.4617 34.7422H41.8775V37.1579H39.4617V34.7422Z" fill="black"/>
<path d="M44.2933 34.7422H46.709V37.1579H44.2933V34.7422Z" fill="black"/>
<path d="M51.5406 34.7422H53.9564V37.1579H51.5406V34.7422Z" fill="black"/>
<path d="M24.9669 37.1579H27.3827V39.5737H24.9669V37.1579Z" fill="black"/>
<path d="M27.3827 37.1579H29.7985V39.5737H27.3827V37.1579Z" fill="black"/>
<path d="M32.2143 37.1579H34.6301V39.5737H32.2143V37.1579Z" fill="black"/>
<path d="M34.6301 37.1579H37.0459V39.5737H34.6301V37.1579Z" fill="black"/>
<path d="M39.4617 37.1579H41.8775V39.5737H39.4617V37.1579Z" fill="black"/>
<path d="M46.709 37.1579H49.1248V39.5737H46.709V37.1579Z" fill="black"/>
<path d="M51.5406 37.1579H53.9564V39.5737H51.5406V37.1579Z" fill="black"/>
<path d="M5.64062 39.5737H8.05641V41.9895H5.64062V39.5737Z" fill="black"/>
<path d="M8.05641 39.5737H10.4722V41.9895H8.05641V39.5737Z" fill="black"/>
<path d="M10.4722 39.5737H12.888V41.9895H10.4722V39.5737Z" fill="black"/>
<path d="M12.888 39.5737H15.3038V41.9895H12.888V39.5737Z" fill="black"/>
<path d="M15.3038 39.5737H17.7196V41.9895H15.3038V39.5737Z" fill="black"/>
<path d="M17.7196 39.5737H20.1354V41.9895H17.7196V39.5737Z" fill="black"/>
<path d="M20.1354 39.5737H22.5512V41.9895H20.1354V39.5737Z" fill="black"/>
<path d="M24.9669 39.5737H27.3827V41.9895H24.9669V39.5737Z" fill="black"/>
<path d="M27.3827 39.5737H29.7985V41.9895H27.3827V39.5737Z" fill="black"/>
<path d="M32.2143 39.5737H34.6301V41.9895H32.2143V39.5737Z" fill="black"/>
<path d="M34.6301 39.5737H37.0459V41.9895H34.6301V39.5737Z" fill="black"/>
<path d="M39.4617 39.5737H41.8775V41.9895H39.4617V39.5737Z" fill="black"/>
<path d="M44.2933 39.5737H46.709V41.9895H44.2933V39.5737Z" fill="black"/>
<path d="M46.709 39.5737H49.1248V41.9895H46.709V39.5737Z" fill="black"/>
<path d="M5.64062 41.9895H8.05641V44.4053H5.64062V41.9895Z" fill="black"/>
<path d="M20.1354 41.9895H22.5512V44.4053H20.1354V41.9895Z" fill="black"/>
<path d="M27.3827 41.9895H29.7985V44.4053H27.3827V41.9895Z" fill="black"/>
<path d="M29.7985 41.9895H32.2143V44.4053H29.7985V41.9895Z" fill="black"/>
<path d="M37.0459 41.9895H39.4617V44.4053H37.0459V41.9895Z" fill="black"/>
<path d="M41.8775 41.9895H44.2933V44.4053H41.8775V41.9895Z" fill="black"/>
<path d="M46.709 41.9895H49.1248V44.4053H46.709V41.9895Z" fill="black"/>
<path d="M49.1248 41.9895H51.5406V44.4053H49.1248V41.9895Z" fill="black"/>
<path d="M53.9564 41.9895H56.3722V44.4053H53.9564V41.9895Z" fill="black"/>
<path d="M5.64062 44.4053H8.05641V46.8211H5.64062V44.4053Z" fill="black"/>
<path d="M10.4722 44.4053H12.888V46.8211H10.4722V44.4053Z" fill="black"/>
<path d="M12.888 44.4053H15.3038V46.8211H12.888V44.4053Z" fill="black"/>
<path d="M15.3038 44.4053H17.7196V46.8211H15.3038V44.4053Z" fill="black"/>
<path d="M20.1354 44.4053H22.5512V46.8211H20.1354V44.4053Z" fill="black"/>
<path d="M27.3827 44.4053H29.7985V46.8211H27.3827V44.4053Z" fill="black"/>
<path d="M32.2143 44.4053H34.6301V46.8211H32.2143V44.4053Z" fill="black"/>
<path d="M34.6301 44.4053H37.0459V46.8211H34.6301V44.4053Z" fill="black"/>
<path d="M37.0459 44.4053H39.4617V46.8211H37.0459V44.4053Z" fill="black"/>
<path d="M41.8775 44.4053H44.2933V46.8211H41.8775V44.4053Z" fill="black"/>
<path d="M46.709 44.4053H49.1248V46.8211H46.709V44.4053Z" fill="black"/>
<path d="M49.1248 44.4053H51.5406V46.8211H49.1248V44.4053Z" fill="black"/>
<path d="M51.5406 44.4053H53.9564V46.8211H51.5406V44.4053Z" fill="black"/>
<path d="M53.9564 44.4053H56.3722V46.8211H53.9564V44.4053Z" fill="black"/>
<path d="M5.64062 46.8211H8.05641V49.2369H5.64062V46.8211Z" fill="black"/>
<path d="M10.4722 46.8211H12.888V49.2369H10.4722V46.8211Z" fill="black"/>
<path d="M12.888 46.8211H15.3038V49.2369H12.888V46.8211Z" fill="black"/>
<path d="M15.3038 46.8211H17.7196V49.2369H15.3038V46.8211Z" fill="black"/>
<path d="M20.1354 46.8211H22.5512V49.2369H20.1354V46.8211Z" fill="black"/>
<path d="M24.9669 46.8211H27.3827V49.2369H24.9669V46.8211Z" fill="black"/>
<path d="M29.7985 46.8211H32.2143V49.2369H29.7985V46.8211Z" fill="black"/>
<path d="M37.0459 46.8211H39.4617V49.2369H37.0459V46.8211Z" fill="black"/>
<path d="M39.4617 46.8211H41.8775V49.2369H39.4617V46.8211Z" fill="black"/>
<path d="M49.1248 46.8211H51.5406V49.2369H49.1248V46.8211Z" fill="black"/>
<path d="M51.5406 46.8211H53.9564V49.2369H51.5406V46.8211Z" fill="black"/>
<path d="M5.64062 49.2369H8.05641V51.6527H5.64062V49.2369Z" fill="black"/>
<path d="M10.4722 49.2369H12.888V51.6527H10.4722V49.2369Z" fill="black"/>
<path d="M12.888 49.2369H15.3038V51.6527H12.888V49.2369Z" fill="black"/>
<path d="M15.3038 49.2369H17.7196V51.6527H15.3038V49.2369Z" fill="black"/>
<path d="M20.1354 49.2369H22.5512V51.6527H20.1354V49.2369Z" fill="black"/>
<path d="M24.9669 49.2369H27.3827V51.6527H24.9669V49.2369Z" fill="black"/>
<path d="M27.3827 49.2369H29.7985V51.6527H27.3827V49.2369Z" fill="black"/>
<path d="M34.6301 49.2369H37.0459V51.6527H34.6301V49.2369Z" fill="black"/>
<path d="M46.709 49.2369H49.1248V51.6527H46.709V49.2369Z" fill="black"/>
<path d="M49.1248 49.2369H51.5406V51.6527H49.1248V49.2369Z" fill="black"/>
<path d="M5.64062 51.6527H8.05641V54.0685H5.64062V51.6527Z" fill="black"/>
<path d="M20.1354 51.6527H22.5512V54.0685H20.1354V51.6527Z" fill="black"/>
<path d="M29.7985 51.6527H32.2143V54.0685H29.7985V51.6527Z" fill="black"/>
<path d="M39.4617 51.6527H41.8775V54.0685H39.4617V51.6527Z" fill="black"/>
<path d="M44.2933 51.6527H46.709V54.0685H44.2933V51.6527Z" fill="black"/>
<path d="M53.9564 51.6527H56.3722V54.0685H53.9564V51.6527Z" fill="black"/>
<path d="M5.64062 54.0685H8.05641V56.4843H5.64062V54.0685Z" fill="black"/>
<path d="M8.05641 54.0685H10.4722V56.4843H8.05641V54.0685Z" fill="black"/>
<path d="M10.4722 54.0685H12.888V56.4843H10.4722V54.0685Z" fill="black"/>
<path d="M12.888 54.0685H15.3038V56.4843H12.888V54.0685Z" fill="black"/>
<path d="M15.3038 54.0685H17.7196V56.4843H15.3038V54.0685Z" fill="black"/>
<path d="M17.7196 54.0685H20.1354V56.4843H17.7196V54.0685Z" fill="black"/>
<path d="M20.1354 54.0685H22.5512V56.4843H20.1354V54.0685Z" fill="black"/>
<path d="M29.7985 54.0685H32.2143V56.4843H29.7985V54.0685Z" fill="black"/>
<path d="M34.6301 54.0685H37.0459V56.4843H34.6301V54.0685Z" fill="black"/>
<path d="M39.4617 54.0685H41.8775V56.4843H39.4617V54.0685Z" fill="black"/>
<path d="M41.8775 54.0685H44.2933V56.4843H41.8775V54.0685Z" fill="black"/>
<path d="M49.1248 54.0685H51.5406V56.4843H49.1248V54.0685Z" fill="black"/>
<path d="M8.05641 5.75269H5.64062V8.16848M8.05641 5.75269V8.16848M8.05641 5.75269H10.4722M8.05641 8.16848H5.64062M8.05641 8.16848H10.4722M8.05641 8.16848V10.5843M5.64062 8.16848V10.5843M10.4722 5.75269V8.16848M10.4722 5.75269H12.888M10.4722 8.16848H12.888M12.888 5.75269V8.16848M12.888 5.75269H15.3038M12.888 8.16848H15.3038M15.3038 5.75269V8.16848M15.3038 5.75269H17.7196M15.3038 8.16848H17.7196M17.7196 5.75269V8.16848M17.7196 5.75269H20.1354M17.7196 8.16848H20.1354M20.1354 5.75269V8.16848M20.1354 5.75269H22.5512V8.16848M20.1354 8.16848H22.5512M20.1354 8.16848V10.5843M22.5512 8.16848V10.5843M29.7985 5.75269H27.3827V8.16848M29.7985 5.75269V8.16848M29.7985 5.75269H32.2143M29.7985 8.16848H27.3827M29.7985 8.16848H32.2143M29.7985 8.16848V10.5843M27.3827 8.16848V10.5843H29.7985M32.2143 5.75269V8.16848M32.2143 5.75269H34.6301M32.2143 8.16848H34.6301M32.2143 8.16848V10.5843M34.6301 5.75269V8.16848M34.6301 5.75269H37.0459V8.16848H34.6301M34.6301 8.16848V10.5843M41.8775 5.75269H39.4617V8.16848M41.8775 5.75269V8.16848M41.8775 5.75269H44.2933M41.8775 8.16848H39.4617M41.8775 8.16848H44.2933M41.8775 8.16848V10.5843M39.4617 8.16848V10.5843M44.2933 5.75269V8.16848M44.2933 5.75269H46.709M44.2933 8.16848H46.709M46.709 5.75269V8.16848M46.709 5.75269H49.1248M46.709 8.16848H49.1248M49.1248 5.75269V8.16848M49.1248 5.75269H51.5406M49.1248 8.16848H51.5406M51.5406 5.75269V8.16848M51.5406 5.75269H53.9564M51.5406 8.16848H53.9564M53.9564 5.75269V8.16848M53.9564 5.75269H56.3722V8.16848M53.9564 8.16848H56.3722M53.9564 8.16848V10.5843M56.3722 8.16848V10.5843M8.05641 10.5843H5.64062M8.05641 10.5843V13.0001M5.64062 10.5843V13.0001M22.5512 10.5843H20.1354M22.5512 10.5843V13.0001M20.1354 10.5843V13.0001M29.7985 10.5843H32.2143M29.7985 10.5843V13.0001M32.2143 10.5843H34.6301M32.2143 10.5843V13.0001M34.6301 10.5843H37.0459V13.0001H34.6301M34.6301 10.5843V13.0001M41.8775 10.5843H39.4617M41.8775 10.5843V13.0001M39.4617 10.5843V13.0001M56.3722 10.5843H53.9564M56.3722 10.5843V13.0001M53.9564 10.5843V13.0001M8.05641 13.0001H5.64062M8.05641 13.0001V15.4158M5.64062 13.0001V15.4158M12.888 10.5843H10.4722V13.0001M12.888 10.5843V13.0001M12.888 10.5843H15.3038M12.888 13.0001H10.4722M12.888 13.0001H15.3038M12.888 13.0001V15.4158M10.4722 13.0001V15.4158M15.3038 10.5843V13.0001M15.3038 10.5843H17.7196V13.0001M15.3038 13.0001H17.7196M15.3038 13.0001V15.4158M17.7196 13.0001V15.4158M22.5512 13.0001H20.1354M22.5512 13.0001V15.4158M20.1354 13.0001V15.4158M32.2143 13.0001H29.7985M32.2143 13.0001V15.4158M32.2143 13.0001H34.6301M29.7985 13.0001V15.4158H32.2143M34.6301 13.0001V15.4158M41.8775 13.0001H39.4617M41.8775 13.0001V15.4158M39.4617 13.0001V15.4158M46.709 10.5843H44.2933V13.0001M46.709 10.5843V13.0001M46.709 10.5843H49.1248M46.709 13.0001H44.2933M46.709 13.0001H49.1248M46.709 13.0001V15.4158M44.2933 13.0001V15.4158M49.1248 10.5843V13.0001M49.1248 10.5843H51.5406V13.0001M49.1248 13.0001H51.5406M49.1248 13.0001V15.4158M51.5406 13.0001V15.4158M56.3722 13.0001H53.9564M56.3722 13.0001V15.4158M53.9564 13.0001V15.4158M8.05641 15.4158H5.64062M8.05641 15.4158V17.8316M5.64062 15.4158V17.8316M12.888 15.4158H10.4722M12.888 15.4158H15.3038M12.888 15.4158V17.8316M10.4722 15.4158V17.8316H12.888M15.3038 15.4158H17.7196M15.3038 15.4158V17.8316M17.7196 15.4158V17.8316H15.3038M22.5512 15.4158H20.1354M22.5512 15.4158V17.8316M20.1354 15.4158V17.8316M32.2143 15.4158H34.6301M34.6301 15.4158H37.0459V17.8316H34.6301M34.6301 15.4158V17.8316M41.8775 15.4158H39.4617M41.8775 15.4158V17.8316M39.4617 15.4158V17.8316M46.709 15.4158H44.2933M46.709 15.4158H49.1248M46.709 15.4158V17.8316M44.2933 15.4158V17.8316H46.709M49.1248 15.4158H51.5406M49.1248 15.4158V17.8316M51.5406 15.4158V17.8316H49.1248M56.3722 15.4158H53.9564M56.3722 15.4158V17.8316M53.9564 15.4158V17.8316M8.05641 17.8316H5.64062M8.05641 17.8316V20.2474M5.64062 17.8316V20.2474M12.888 17.8316H15.3038M22.5512 17.8316H20.1354M22.5512 17.8316V20.2474M20.1354 17.8316V20.2474M27.3827 17.8316V15.4158H24.9669V17.8316H27.3827ZM27.3827 17.8316H29.7985V20.2474M27.3827 17.8316V20.2474M34.6301 17.8316H32.2143V20.2474M34.6301 17.8316V20.2474M41.8775 17.8316H39.4617M41.8775 17.8316V20.2474M39.4617 17.8316V20.2474M46.709 17.8316H49.1248M56.3722 17.8316H53.9564M56.3722 17.8316V20.2474M53.9564 17.8316V20.2474M8.05641 20.2474H5.64062M8.05641 20.2474V22.6632M8.05641 20.2474H10.4722M5.64062 20.2474V22.6632H8.05641M22.5512 20.2474H20.1354M22.5512 20.2474V22.6632H20.1354M20.1354 20.2474H17.7196M20.1354 20.2474V22.6632M29.7985 20.2474H27.3827M29.7985 20.2474H32.2143M29.7985 20.2474V22.6632M27.3827 20.2474H24.9669V22.6632M27.3827 20.2474V22.6632M34.6301 20.2474H32.2143M34.6301 20.2474H37.0459V22.6632H34.6301V20.2474ZM32.2143 20.2474V22.6632H29.7985M41.8775 20.2474H39.4617M41.8775 20.2474V22.6632M41.8775 20.2474H44.2933M39.4617 20.2474V22.6632H41.8775M56.3722 20.2474H53.9564M56.3722 20.2474V22.6632H53.9564M53.9564 20.2474H51.5406M53.9564 20.2474V22.6632M8.05641 22.6632H10.4722M10.4722 20.2474V22.6632M10.4722 20.2474H12.888M10.4722 22.6632H12.888M12.888 20.2474V22.6632M12.888 20.2474H15.3038M12.888 22.6632H15.3038M15.3038 20.2474V22.6632M15.3038 20.2474H17.7196M15.3038 22.6632H17.7196M17.7196 20.2474V22.6632M17.7196 22.6632H20.1354M27.3827 22.6632H24.9669M27.3827 22.6632V25.079M27.3827 22.6632H29.7985M24.9669 22.6632V25.079M29.7985 22.6632V25.079M41.8775 22.6632H44.2933M44.2933 20.2474V22.6632M44.2933 20.2474H46.709M44.2933 22.6632H46.709M46.709 20.2474V22.6632M46.709 20.2474H49.1248M46.709 22.6632H49.1248M49.1248 20.2474V22.6632M49.1248 20.2474H51.5406M49.1248 22.6632H51.5406M51.5406 20.2474V22.6632M51.5406 22.6632H53.9564M27.3827 25.079H24.9669M27.3827 25.079H29.7985M27.3827 25.079V27.4948M24.9669 25.079H22.5512M24.9669 25.079V27.4948M29.7985 25.079V27.4948M29.7985 25.079H32.2143V27.4948H29.7985M12.888 25.079H10.4722V27.4948M12.888 25.079V27.4948M12.888 25.079H15.3038V27.4948M12.888 27.4948H10.4722M12.888 27.4948H15.3038M12.888 27.4948V29.9106M10.4722 27.4948H8.05641V29.9106H10.4722M10.4722 27.4948V29.9106M15.3038 27.4948H17.7196M15.3038 27.4948V29.9106M22.5512 25.079H20.1354V27.4948M22.5512 25.079V27.4948M22.5512 27.4948H20.1354M22.5512 27.4948H24.9669M22.5512 27.4948V29.9106M20.1354 27.4948H17.7196M20.1354 27.4948V29.9106M24.9669 27.4948H27.3827M24.9669 27.4948V29.9106M27.3827 27.4948H29.7985M27.3827 27.4948V29.9106H24.9669M39.4617 25.079H37.0459V27.4948M39.4617 25.079V27.4948M39.4617 25.079H41.8775V27.4948M39.4617 27.4948H37.0459M39.4617 27.4948H41.8775M39.4617 27.4948V29.9106M37.0459 27.4948V29.9106M41.8775 27.4948H44.2933M41.8775 27.4948V29.9106M44.2933 27.4948H46.709V25.079H44.2933V27.4948ZM44.2933 27.4948V29.9106M10.4722 29.9106H12.888M12.888 29.9106H15.3038M12.888 29.9106V32.3264M17.7196 27.4948V29.9106M17.7196 29.9106H15.3038M17.7196 29.9106H20.1354M17.7196 29.9106V32.3264M15.3038 29.9106V32.3264M20.1354 29.9106V32.3264M20.1354 29.9106H22.5512M24.9669 29.9106H22.5512M22.5512 29.9106V32.3264M39.4617 29.9106H37.0459M39.4617 29.9106V32.3264M39.4617 29.9106H41.8775M37.0459 29.9106H34.6301V32.3264M37.0459 29.9106V32.3264M44.2933 29.9106H41.8775M44.2933 29.9106V32.3264M44.2933 29.9106H46.709M41.8775 29.9106V32.3264M51.5406 27.4948H49.1248V29.9106M51.5406 27.4948V29.9106M51.5406 27.4948H53.9564M51.5406 29.9106H49.1248M51.5406 29.9106H53.9564M51.5406 29.9106V32.3264M49.1248 29.9106H46.709M49.1248 29.9106V32.3264M53.9564 27.4948V29.9106M53.9564 27.4948H56.3722V29.9106M53.9564 29.9106H56.3722M53.9564 29.9106V32.3264M56.3722 29.9106V32.3264H53.9564M15.3038 32.3264H12.888M15.3038 32.3264H17.7196M12.888 32.3264H10.4722M12.888 32.3264V34.7422M17.7196 32.3264H20.1354M17.7196 32.3264V34.7422M20.1354 32.3264H22.5512M20.1354 32.3264V34.7422M22.5512 32.3264H24.9669V34.7422M22.5512 32.3264V34.7422M32.2143 32.3264V29.9106H29.7985V32.3264H32.2143ZM32.2143 32.3264H34.6301M32.2143 32.3264V34.7422M37.0459 32.3264H34.6301M37.0459 32.3264H39.4617M37.0459 32.3264V34.7422M34.6301 32.3264V34.7422M39.4617 32.3264H41.8775M39.4617 32.3264V34.7422M41.8775 32.3264H44.2933M41.8775 32.3264V34.7422M44.2933 32.3264H46.709M46.709 29.9106V32.3264M46.709 32.3264H49.1248M46.709 32.3264V34.7422M49.1248 32.3264H51.5406M49.1248 32.3264V34.7422H46.709M51.5406 32.3264H53.9564M51.5406 32.3264V34.7422M53.9564 32.3264V34.7422M10.4722 32.3264H8.05641V34.7422M10.4722 32.3264V34.7422M10.4722 34.7422H8.05641M10.4722 34.7422H12.888M10.4722 34.7422V37.1579M8.05641 34.7422V37.1579H10.4722M12.888 34.7422V37.1579H10.4722M20.1354 34.7422H17.7196M20.1354 34.7422V37.1579M20.1354 34.7422H22.5512M17.7196 34.7422H15.3038V37.1579H17.7196M17.7196 34.7422V37.1579M24.9669 34.7422H22.5512M24.9669 34.7422V37.1579M24.9669 34.7422H27.3827M22.5512 34.7422V37.1579M34.6301 34.7422H32.2143M34.6301 34.7422H37.0459M34.6301 34.7422V37.1579M32.2143 34.7422H29.7985M32.2143 34.7422V37.1579M37.0459 34.7422H39.4617M37.0459 34.7422V37.1579M39.4617 34.7422H41.8775M39.4617 34.7422V37.1579M41.8775 34.7422V37.1579M46.709 34.7422H44.2933V37.1579H46.709M46.709 34.7422V37.1579M53.9564 34.7422H51.5406M53.9564 34.7422V37.1579M51.5406 34.7422V37.1579M17.7196 37.1579H20.1354M20.1354 37.1579H22.5512M22.5512 37.1579H24.9669M24.9669 37.1579H27.3827M24.9669 37.1579V39.5737M27.3827 34.7422V37.1579M27.3827 34.7422H29.7985M27.3827 37.1579H29.7985M27.3827 37.1579V39.5737M29.7985 34.7422V37.1579M29.7985 37.1579H32.2143M29.7985 37.1579V39.5737M32.2143 37.1579H34.6301M32.2143 37.1579V39.5737M37.0459 37.1579H34.6301M37.0459 37.1579H39.4617M37.0459 37.1579V39.5737M34.6301 37.1579V39.5737M39.4617 37.1579H41.8775M39.4617 37.1579V39.5737M41.8775 37.1579V39.5737M46.709 37.1579H49.1248V39.5737M46.709 37.1579V39.5737M53.9564 37.1579H51.5406M53.9564 37.1579V39.5737H51.5406V37.1579M27.3827 39.5737H24.9669M27.3827 39.5737H29.7985M27.3827 39.5737V41.9895M24.9669 39.5737V41.9895H27.3827M29.7985 39.5737V41.9895M34.6301 39.5737H32.2143M34.6301 39.5737H37.0459M34.6301 39.5737V41.9895M32.2143 39.5737V41.9895M37.0459 39.5737V41.9895M41.8775 39.5737H39.4617M41.8775 39.5737V41.9895M39.4617 39.5737V41.9895M49.1248 39.5737H46.709M49.1248 39.5737V41.9895M46.709 39.5737H44.2933V41.9895M46.709 39.5737V41.9895M8.05641 39.5737H5.64062V41.9895M8.05641 39.5737V41.9895M8.05641 39.5737H10.4722M8.05641 41.9895H5.64062M8.05641 41.9895H10.4722M8.05641 41.9895V44.4053M5.64062 41.9895V44.4053M10.4722 39.5737V41.9895M10.4722 39.5737H12.888M10.4722 41.9895H12.888M12.888 39.5737V41.9895M12.888 39.5737H15.3038M12.888 41.9895H15.3038M15.3038 39.5737V41.9895M15.3038 39.5737H17.7196M15.3038 41.9895H17.7196M17.7196 39.5737V41.9895M17.7196 39.5737H20.1354M17.7196 41.9895H20.1354M20.1354 39.5737V41.9895M20.1354 39.5737H22.5512V41.9895M20.1354 41.9895H22.5512M20.1354 41.9895V44.4053M22.5512 41.9895V44.4053M27.3827 41.9895H29.7985M27.3827 41.9895V44.4053M29.7985 41.9895V44.4053M29.7985 41.9895H32.2143M34.6301 41.9895H32.2143M34.6301 41.9895H37.0459M32.2143 41.9895V44.4053M37.0459 41.9895H39.4617M37.0459 41.9895V44.4053M41.8775 41.9895H39.4617M41.8775 41.9895H44.2933M41.8775 41.9895V44.4053M39.4617 41.9895V44.4053M46.709 41.9895H44.2933M46.709 41.9895H49.1248M46.709 41.9895V44.4053M44.2933 41.9895V44.4053M49.1248 41.9895V44.4053M49.1248 41.9895H51.5406V44.4053M8.05641 44.4053H5.64062M8.05641 44.4053V46.8211M5.64062 44.4053V46.8211M22.5512 44.4053H20.1354M22.5512 44.4053V46.8211M20.1354 44.4053V46.8211M29.7985 44.4053H27.3827M29.7985 44.4053H32.2143M29.7985 44.4053V46.8211M27.3827 44.4053V46.8211M32.2143 44.4053H34.6301M32.2143 44.4053V46.8211M39.4617 44.4053H37.0459M39.4617 44.4053V46.8211M37.0459 44.4053H34.6301M37.0459 44.4053V46.8211M44.2933 44.4053H41.8775M44.2933 44.4053V46.8211H41.8775M41.8775 44.4053V46.8211M49.1248 44.4053H46.709M49.1248 44.4053H51.5406M49.1248 44.4053V46.8211M46.709 44.4053V46.8211H49.1248M51.5406 44.4053V46.8211M51.5406 44.4053H53.9564M56.3722 44.4053V41.9895H53.9564V44.4053M56.3722 44.4053H53.9564M56.3722 44.4053V46.8211H53.9564M53.9564 44.4053V46.8211M8.05641 46.8211H5.64062M8.05641 46.8211V49.2369M5.64062 46.8211V49.2369M12.888 44.4053H10.4722V46.8211M12.888 44.4053V46.8211M12.888 44.4053H15.3038M12.888 46.8211H10.4722M12.888 46.8211H15.3038M12.888 46.8211V49.2369M10.4722 46.8211V49.2369M15.3038 44.4053V46.8211M15.3038 44.4053H17.7196V46.8211M15.3038 46.8211H17.7196M15.3038 46.8211V49.2369M17.7196 46.8211V49.2369M22.5512 46.8211H20.1354M22.5512 46.8211V49.2369M20.1354 46.8211V49.2369M29.7985 46.8211H27.3827M29.7985 46.8211H32.2143M29.7985 46.8211V49.2369M27.3827 46.8211H24.9669V49.2369M27.3827 46.8211V49.2369M34.6301 44.4053V46.8211M34.6301 46.8211H32.2143M34.6301 46.8211H37.0459M32.2143 46.8211V49.2369H29.7985M37.0459 46.8211H39.4617M37.0459 46.8211V49.2369M39.4617 46.8211V49.2369M39.4617 46.8211H41.8775M41.8775 46.8211V49.2369H39.4617M49.1248 46.8211H51.5406M49.1248 46.8211V49.2369M51.5406 46.8211H53.9564M51.5406 46.8211V49.2369M53.9564 46.8211V49.2369H51.5406M8.05641 49.2369H5.64062M8.05641 49.2369V51.6527M5.64062 49.2369V51.6527M12.888 49.2369H10.4722M12.888 49.2369H15.3038M12.888 49.2369V51.6527M10.4722 49.2369V51.6527H12.888M15.3038 49.2369H17.7196M15.3038 49.2369V51.6527M17.7196 49.2369V51.6527H15.3038M22.5512 49.2369H20.1354M22.5512 49.2369V51.6527M20.1354 49.2369V51.6527M27.3827 49.2369H24.9669M27.3827 49.2369V51.6527M27.3827 49.2369H29.7985M24.9669 49.2369V51.6527H27.3827M29.7985 49.2369V51.6527M39.4617 49.2369H37.0459M37.0459 49.2369H34.6301V51.6527H37.0459V49.2369ZM51.5406 49.2369H49.1248M51.5406 49.2369V51.6527H49.1248M49.1248 49.2369H46.709V51.6527M49.1248 49.2369V51.6527M8.05641 51.6527H5.64062M8.05641 51.6527V54.0685M5.64062 51.6527V54.0685M12.888 51.6527H15.3038M22.5512 51.6527H20.1354M22.5512 51.6527V54.0685M20.1354 51.6527V54.0685M27.3827 51.6527H29.7985M29.7985 51.6527H32.2143V54.0685M29.7985 51.6527V54.0685M49.1248 51.6527H46.709M46.709 51.6527H44.2933V54.0685M46.709 51.6527V54.0685H44.2933M8.05641 54.0685H5.64062M8.05641 54.0685V56.4843M8.05641 54.0685H10.4722M5.64062 54.0685V56.4843H8.05641M22.5512 54.0685H20.1354M22.5512 54.0685V56.4843H20.1354M20.1354 54.0685H17.7196M20.1354 54.0685V56.4843M32.2143 54.0685H29.7985M32.2143 54.0685V56.4843H29.7985V54.0685M41.8775 54.0685V51.6527H39.4617V54.0685M41.8775 54.0685H39.4617M41.8775 54.0685V56.4843M41.8775 54.0685H44.2933M39.4617 54.0685V56.4843H41.8775M44.2933 54.0685V56.4843H41.8775M8.05641 56.4843H10.4722M10.4722 54.0685V56.4843M10.4722 54.0685H12.888M10.4722 56.4843H12.888M12.888 54.0685V56.4843M12.888 54.0685H15.3038M12.888 56.4843H15.3038M15.3038 54.0685V56.4843M15.3038 54.0685H17.7196M15.3038 56.4843H17.7196M17.7196 54.0685V56.4843M17.7196 56.4843H20.1354M53.9564 51.6527H56.3722V54.0685H53.9564V51.6527ZM34.6301 54.0685H37.0459V56.4843H34.6301V54.0685ZM49.1248 54.0685H51.5406V56.4843H49.1248V54.0685Z" stroke="black" stroke-width="0.5"/>
</svg>
