<svg width="22" height="22" viewBox="0 0 22 22" fill="none" xmlns="http://www.w3.org/2000/svg">
<path d="M11 15.9156C10.8167 15.9156 10.6448 15.8872 10.4844 15.8304C10.324 15.7735 10.175 15.6759 10.0375 15.5375L5.0875 10.5875C4.83542 10.3354 4.70938 10.0146 4.70938 9.625C4.70938 9.23542 4.83542 8.91459 5.0875 8.6625C5.33958 8.41042 5.66638 8.27888 6.06788 8.26788C6.46938 8.25688 6.79571 8.37696 7.04688 8.62813L9.625 11.2063V1.375C9.625 0.985421 9.757 0.65863 10.021 0.39463C10.285 0.13063 10.6113 -0.000911909 11 4.75778e-06C11.3896 4.75778e-06 11.7164 0.132005 11.9804 0.396005C12.2444 0.660005 12.3759 0.986338 12.375 1.375V11.2063L14.9531 8.62813C15.2052 8.37604 15.532 8.2555 15.9335 8.2665C16.335 8.2775 16.6613 8.4095 16.9125 8.6625C17.1646 8.91459 17.2906 9.23542 17.2906 9.625C17.2906 10.0146 17.1646 10.3354 16.9125 10.5875L11.9625 15.5375C11.825 15.675 11.676 15.7726 11.5156 15.8304C11.3552 15.8881 11.1833 15.9165 11 15.9156ZM2.75 22C1.99375 22 1.34613 21.7305 0.807127 21.1915C0.268127 20.6525 -0.000914332 20.0053 2.33447e-06 19.25V16.5C2.33447e-06 16.1104 0.132002 15.7836 0.396002 15.5196C0.660002 15.2556 0.986335 15.1241 1.375 15.125C1.76459 15.125 2.09138 15.257 2.35538 15.521C2.61938 15.785 2.75092 16.1113 2.75 16.5V19.25H19.25V16.5C19.25 16.1104 19.382 15.7836 19.646 15.5196C19.91 15.2556 20.2363 15.1241 20.625 15.125C21.0146 15.125 21.3414 15.257 21.6054 15.521C21.8694 15.785 22.0009 16.1113 22 16.5V19.25C22 20.0062 21.7305 20.6539 21.1915 21.1929C20.6525 21.7319 20.0053 22.0009 19.25 22H2.75Z" fill="white"/>
</svg>
