<svg width="201" height="80" viewBox="0 0 201 80" fill="none" xmlns="http://www.w3.org/2000/svg">
<path d="M0.696389 76.9107C38.5157 -13.7375 171.143 -3.08292 199.826 76.6732" stroke="white" stroke-dasharray="10 10"/>
<path d="M94.8362 1.20459H106.954C108.501 1.20543 110.032 1.48608 111.45 2.02909C112.868 2.57209 114.144 3.36586 115.199 4.36106C115.199 5.41322 116.46 6.93043 116.945 8.04361L121.446 10.674L123.523 12.7783L109.18 13.8305L94.8362 12.7783V1.20459Z" fill="#EAD6C7"/>
<path d="M94.8252 12.7783H123.522L126.345 17.1553C128.189 19.228 126.501 22.2477 123.511 22.2477H94.8132V12.7783H94.8252Z" fill="#EAD6C7"/>
<path d="M123.524 12.7783L127.541 17.1448C129.386 19.2207 127.697 22.2477 124.699 22.2477H123.524V12.7783Z" fill="#956744"/>
<path d="M121.447 10.6738H104.641C103.538 10.6723 102.451 10.4431 101.467 10.0045C100.483 9.56591 99.6296 8.93022 98.9759 8.1486L97.4889 6.38098C96.7927 5.54978 97.465 4.36084 98.6337 4.36084H115.199C115.283 4.44027 115.366 4.52094 115.447 4.60284L118.881 8.07495L121.447 10.6738Z" fill="#5E3B20"/>
<path d="M97.2064 5.413H116.25L115.448 4.60284C115.367 4.52077 115.285 4.43975 115.2 4.36084H98.5834C97.8488 4.36084 97.3117 4.84483 97.2064 5.413ZM115.151 22.2475L113.674 20.5683C112.271 18.9732 110.082 18.0389 107.744 18.0389H94.8139V22.2475H115.151Z" fill="#5E3B20"/>
<path d="M117.553 16.9871H119.946C120.604 16.9871 121.142 16.5137 121.142 15.935C121.142 15.3563 120.604 14.8828 119.946 14.8828H117.553C116.895 14.8828 116.357 15.3563 116.357 15.935C116.357 16.5137 116.895 16.9871 117.553 16.9871Z" fill="#5E3B20"/>
<path d="M94.8123 22.2476H128.308V25.404H94.8123V22.2476Z" fill="#43250E"/>
<rect width="9.00016" height="26.881" transform="matrix(-1 0 0 1 94.8853 0.576172)" fill="#EAD6C7"/>
<rect width="17.486" height="3.98784" transform="matrix(-1 0 0 1 103.371 27.1611)" fill="#43250E"/>
<rect width="9.25731" height="5.46482" transform="matrix(-1 0 0 1 95.1421 21.8442)" fill="#5E3B20"/>
<path d="M92.0562 8.40435C92.0562 6.20192 90.2707 4.4165 88.0683 4.4165H85.8846V12.3922H88.0683C90.2707 12.3922 92.0562 10.6068 92.0562 8.40435Z" fill="#5E3B20"/>
</svg>
