<svg width="25" height="24" viewBox="0 0 25 24" fill="none" xmlns="http://www.w3.org/2000/svg">
<g clip-path="url(#clip0_20_199)">
<path d="M25 12.1028C25 5.66998 19.4035 0.455078 12.5 0.455078C5.59648 0.455078 0 5.66989 0 12.1028C0 17.9165 4.57109 22.7353 10.5469 23.609V15.4697H7.37305V12.1028H10.5469V9.53667C10.5469 6.61745 12.4131 5.00497 15.2683 5.00497C16.6359 5.00497 18.0664 5.23247 18.0664 5.23247V8.0989H16.4902C14.9373 8.0989 14.4531 8.99677 14.4531 9.91795V12.1028H17.9199L17.3657 15.4697H14.4531V23.609C20.4289 22.7353 25 17.9166 25 12.1028Z" fill="#1562C7"/>
<path d="M17.3657 15.4696L17.9199 12.1027H14.4531V9.91786C14.4531 8.9966 14.9374 8.09881 16.4902 8.09881H18.0664V5.23238C18.0664 5.23238 16.6359 5.00488 15.2683 5.00488C12.4131 5.00488 10.5469 6.61737 10.5469 9.53658V12.1027H7.37305V15.4696H10.5469V23.6089C11.193 23.7033 11.846 23.7506 12.5 23.7504C13.154 23.7506 13.807 23.7033 14.4531 23.6089V15.4696H17.3657Z" fill="white"/>
</g>
<defs>
<clipPath id="clip0_20_199">
<path d="M0 0.455078H13.3523C19.7851 0.455078 25 5.66994 25 12.1028C25 18.5357 19.7851 23.7505 13.3523 23.7505H0V0.455078Z" fill="white"/>
</clipPath>
</defs>
</svg>
