<svg width="66" height="31" viewBox="0 0 66 31" fill="none" xmlns="http://www.w3.org/2000/svg">
<path d="M39.7381 0.717039C69.5035 -0.417948 65.2371 5.0418 65.2371 16.286C65.2371 27.5301 69.806 32.0881 38.683 30.7834C8.61172 29.5227 0.698242 26.8754 0.698242 16.286C0.698242 4.43593 6.67732 1.97768 39.7381 0.717039Z" fill="#E3D2CB"/>
<path d="M9.16615 7.4513C13.0725 5.05445 13.0725 10.8593 13.0725 15.7538C13.0725 20.6482 13.0725 27.328 9.16615 24.742C4.39167 22.5344 2.71875 20.6482 2.71875 15.7538C2.71875 10.8593 4.82539 8.71278 9.16615 7.4513Z" fill="white"/>
<rect x="39.083" y="23.2977" width="15.0256" height="16.2882" rx="7.5128" transform="rotate(-90 39.083 23.2977)" fill="#D6C0B8"/>
<rect x="43.5029" y="20.2676" width="9.09112" height="1.01012" rx="0.505062" transform="rotate(-90 43.5029 20.2676)" fill="white"/>
<rect x="46.6582" y="20.2673" width="9.09112" height="1.01012" rx="0.505062" transform="rotate(-90 46.6582 20.2673)" fill="white"/>
<rect x="49.8154" y="20.2676" width="9.09112" height="1.01012" rx="0.505062" transform="rotate(-90 49.8154 20.2676)" fill="white"/>
<rect x="19.5117" y="23.2979" width="15.0256" height="16.2882" rx="7.5128" transform="rotate(-90 19.5117 23.2979)" fill="#D6C0B8"/>
<rect x="23.9307" y="20.2676" width="9.09112" height="1.01012" rx="0.505062" transform="rotate(-90 23.9307 20.2676)" fill="white"/>
<rect x="27.0869" y="20.2673" width="9.09112" height="1.01012" rx="0.505062" transform="rotate(-90 27.0869 20.2673)" fill="white"/>
<rect x="30.2432" y="20.2676" width="9.09112" height="1.01012" rx="0.505062" transform="rotate(-90 30.2432 20.2676)" fill="white"/>
</svg>
