<svg width="61" height="29" viewBox="0 0 61 29" fill="none" xmlns="http://www.w3.org/2000/svg">
<rect x="0.803711" y="28.0585" width="27.5259" height="59.8498" rx="10" transform="rotate(-90 0.803711 28.0585)" fill="#E3D2CB"/>
<rect x="8.63281" y="21.7455" width="15.0256" height="19.1924" rx="7.5128" transform="rotate(-90 8.63281 21.7455)" fill="#D6C0B8"/>
<rect x="12.041" y="18.7152" width="9.09112" height="1.01012" rx="0.505062" transform="rotate(-90 12.041 18.7152)" fill="white"/>
<rect x="16.083" y="18.7151" width="9.09112" height="1.01012" rx="0.505062" transform="rotate(-90 16.083 18.7151)" fill="white"/>
<rect x="20.1221" y="18.7152" width="9.09112" height="1.01012" rx="0.505062" transform="rotate(-90 20.1221 18.7152)" fill="white"/>
<rect x="24.1641" y="18.7152" width="9.09112" height="1.01012" rx="0.505062" transform="rotate(-90 24.1641 18.7152)" fill="white"/>
<rect x="36.0312" y="21.7455" width="15.0256" height="19.1924" rx="7.5128" transform="rotate(-90 36.0312 21.7455)" fill="#D6C0B8"/>
<rect x="39.4404" y="18.7151" width="9.09112" height="1.01012" rx="0.505062" transform="rotate(-90 39.4404 18.7151)" fill="white"/>
<rect x="43.4814" y="18.7151" width="9.09112" height="1.01012" rx="0.505062" transform="rotate(-90 43.4814 18.7151)" fill="white"/>
<rect x="47.5215" y="18.7152" width="9.09112" height="1.01012" rx="0.505062" transform="rotate(-90 47.5215 18.7152)" fill="white"/>
<rect x="51.5625" y="18.7151" width="9.09112" height="1.01012" rx="0.505062" transform="rotate(-90 51.5625 18.7151)" fill="white"/>
</svg>
