<svg width="71" height="28" viewBox="0 0 71 28" fill="none" xmlns="http://www.w3.org/2000/svg">
<rect y="28" width="28" height="71" rx="10" transform="rotate(-90 0 28)" fill="#E3D2CB"/>
<rect x="10" y="22.8077" width="16.8077" height="23" rx="8.40384" transform="rotate(-90 10 22.8077)" fill="#D6C0B8"/>
<rect x="14.0854" y="19.4178" width="10.1694" height="1.21053" rx="0.605263" transform="rotate(-90 14.0854 19.4178)" fill="white"/>
<rect x="18.9282" y="19.4178" width="10.1694" height="1.21053" rx="0.605263" transform="rotate(-90 18.9282 19.4178)" fill="white"/>
<rect x="23.77" y="19.418" width="10.1694" height="1.21053" rx="0.605263" transform="rotate(-90 23.77 19.418)" fill="white"/>
<rect x="28.6123" y="19.4178" width="10.1694" height="1.21053" rx="0.605263" transform="rotate(-90 28.6123 19.4178)" fill="white"/>
<rect x="38" y="22.8077" width="16.8077" height="23" rx="8.40384" transform="rotate(-90 38 22.8077)" fill="#D6C0B8"/>
<rect x="42.0854" y="19.4178" width="10.1694" height="1.21053" rx="0.605263" transform="rotate(-90 42.0854 19.4178)" fill="white"/>
<rect x="46.9282" y="19.4178" width="10.1694" height="1.21053" rx="0.605263" transform="rotate(-90 46.9282 19.4178)" fill="white"/>
<rect x="51.77" y="19.418" width="10.1694" height="1.21053" rx="0.605263" transform="rotate(-90 51.77 19.418)" fill="white"/>
<rect x="56.6123" y="19.4178" width="10.1694" height="1.21053" rx="0.605263" transform="rotate(-90 56.6123 19.4178)" fill="white"/>
</svg>
