<svg width="71" height="30" viewBox="0 0 71 30" fill="none" xmlns="http://www.w3.org/2000/svg">
<path d="M42.7922 0.144946C75.4185 -0.974003 70.742 4.4086 70.742 15.4939C70.742 26.5792 75.7501 31.0727 41.6356 29.7864C8.67409 28.5436 0 25.9336 0 15.4939C0 3.81129 6.55376 1.38778 42.7922 0.144946Z" fill="#E3D2CB"/>
<path d="M8.46791 6.13343C12.3743 3.73658 12.3743 9.54143 12.3743 14.4359C12.3743 19.3303 12.3743 26.0101 8.46791 23.4242C3.69343 21.2165 2.02051 19.3303 2.02051 14.4359C2.02051 9.54143 4.12715 7.39491 8.46791 6.13343Z" fill="white"/>
<rect x="44" y="23" width="16.2979" height="19.5242" rx="8.14895" transform="rotate(-90 44 23)" fill="#D6C0B8"/>
<rect x="49.2979" y="19.7133" width="9.86092" height="1.2108" rx="0.605401" transform="rotate(-90 49.2979 19.7133)" fill="white"/>
<rect x="53.0801" y="19.713" width="9.86092" height="1.2108" rx="0.605401" transform="rotate(-90 53.0801 19.713)" fill="white"/>
<rect x="56.8647" y="19.7133" width="9.86092" height="1.2108" rx="0.605401" transform="rotate(-90 56.8647 19.7133)" fill="white"/>
<rect x="19" y="23" width="16.3643" height="20" rx="8.18214" transform="rotate(-90 19 23)" fill="#D6C0B8"/>
<rect x="24.4258" y="19.6998" width="9.90107" height="1.24031" rx="0.620155" transform="rotate(-90 24.4258 19.6998)" fill="white"/>
<rect x="28.3013" y="19.6995" width="9.90107" height="1.24031" rx="0.620155" transform="rotate(-90 28.3013 19.6995)" fill="white"/>
<rect x="32.1772" y="19.6998" width="9.90107" height="1.24031" rx="0.620155" transform="rotate(-90 32.1772 19.6998)" fill="white"/>
</svg>
