<svg width="548" height="63" viewBox="0 0 548 63" fill="none" xmlns="http://www.w3.org/2000/svg">
<rect y="49" width="2" height="548" transform="rotate(-90 0 49)" fill="url(#paint0_linear_1046_503)"/>
<path d="M69.7381 32.717C99.5035 31.5821 95.2371 37.0418 95.2371 48.286C95.2371 59.5301 99.806 64.0881 68.683 62.7834C38.6117 61.5227 30.6982 58.8754 30.6982 48.286C30.6982 36.4359 36.6773 33.9777 69.7381 32.717Z" fill="#E3D2CB"/>
<path d="M39.1662 39.4513C43.0725 37.0544 43.0725 42.8593 43.0725 47.7538C43.0725 52.6482 43.0725 59.328 39.1662 56.742C34.3917 54.5344 32.7188 52.6482 32.7188 47.7538C32.7188 42.8593 34.8254 40.7128 39.1662 39.4513Z" fill="white"/>
<rect x="69.083" y="55.2977" width="15.0256" height="16.2882" rx="7.5128" transform="rotate(-90 69.083 55.2977)" fill="#D6C0B8"/>
<rect x="73.5029" y="52.2676" width="9.09112" height="1.01012" rx="0.505062" transform="rotate(-90 73.5029 52.2676)" fill="white"/>
<rect x="76.6582" y="52.2673" width="9.09112" height="1.01012" rx="0.505062" transform="rotate(-90 76.6582 52.2673)" fill="white"/>
<rect x="79.8154" y="52.2676" width="9.09112" height="1.01012" rx="0.505062" transform="rotate(-90 79.8154 52.2676)" fill="white"/>
<rect x="49.5117" y="55.2979" width="15.0256" height="16.2882" rx="7.5128" transform="rotate(-90 49.5117 55.2979)" fill="#D6C0B8"/>
<rect x="53.9307" y="52.2676" width="9.09112" height="1.01012" rx="0.505062" transform="rotate(-90 53.9307 52.2676)" fill="white"/>
<rect x="57.0869" y="52.2673" width="9.09112" height="1.01012" rx="0.505062" transform="rotate(-90 57.0869 52.2673)" fill="white"/>
<rect x="60.2432" y="52.2676" width="9.09112" height="1.01012" rx="0.505062" transform="rotate(-90 60.2432 52.2676)" fill="white"/>
<rect x="101.804" y="61.0584" width="27.5259" height="59.8498" rx="10" transform="rotate(-90 101.804 61.0584)" fill="#E3D2CB"/>
<rect x="109.633" y="54.7455" width="15.0256" height="19.1924" rx="7.5128" transform="rotate(-90 109.633 54.7455)" fill="#D6C0B8"/>
<rect x="113.041" y="51.7152" width="9.09112" height="1.01012" rx="0.505062" transform="rotate(-90 113.041 51.7152)" fill="white"/>
<rect x="117.083" y="51.7151" width="9.09112" height="1.01012" rx="0.505062" transform="rotate(-90 117.083 51.7151)" fill="white"/>
<rect x="121.122" y="51.7152" width="9.09112" height="1.01012" rx="0.505062" transform="rotate(-90 121.122 51.7152)" fill="white"/>
<rect x="125.164" y="51.7152" width="9.09112" height="1.01012" rx="0.505062" transform="rotate(-90 125.164 51.7152)" fill="white"/>
<rect x="137.031" y="54.7455" width="15.0256" height="19.1924" rx="7.5128" transform="rotate(-90 137.031 54.7455)" fill="#D6C0B8"/>
<rect x="140.44" y="51.715" width="9.09112" height="1.01012" rx="0.505062" transform="rotate(-90 140.44 51.715)" fill="white"/>
<rect x="144.481" y="51.715" width="9.09112" height="1.01012" rx="0.505062" transform="rotate(-90 144.481 51.715)" fill="white"/>
<rect x="148.521" y="51.7152" width="9.09112" height="1.01012" rx="0.505062" transform="rotate(-90 148.521 51.7152)" fill="white"/>
<rect x="152.562" y="51.715" width="9.09112" height="1.01012" rx="0.505062" transform="rotate(-90 152.562 51.715)" fill="white"/>
<rect x="167.982" y="61.0586" width="27.5259" height="59.8498" rx="10" transform="rotate(-90 167.982 61.0586)" fill="#E3D2CB"/>
<rect x="175.812" y="54.7451" width="15.0256" height="19.1924" rx="7.5128" transform="rotate(-90 175.812 54.7451)" fill="#D6C0B8"/>
<rect x="179.221" y="51.7149" width="9.09112" height="1.01012" rx="0.505062" transform="rotate(-90 179.221 51.7149)" fill="white"/>
<rect x="183.262" y="51.7148" width="9.09112" height="1.01012" rx="0.505062" transform="rotate(-90 183.262 51.7148)" fill="white"/>
<rect x="187.301" y="51.7149" width="9.09112" height="1.01012" rx="0.505062" transform="rotate(-90 187.301 51.7149)" fill="white"/>
<rect x="191.343" y="51.7148" width="9.09112" height="1.01012" rx="0.505062" transform="rotate(-90 191.343 51.7148)" fill="white"/>
<rect x="203.211" y="54.7456" width="15.0256" height="19.1924" rx="7.5128" transform="rotate(-90 203.211 54.7456)" fill="#D6C0B8"/>
<rect x="206.62" y="51.7152" width="9.09112" height="1.01012" rx="0.505062" transform="rotate(-90 206.62 51.7152)" fill="white"/>
<rect x="210.66" y="51.7152" width="9.09112" height="1.01012" rx="0.505062" transform="rotate(-90 210.66 51.7152)" fill="white"/>
<rect x="214.701" y="51.7153" width="9.09112" height="1.01012" rx="0.505062" transform="rotate(-90 214.701 51.7153)" fill="white"/>
<rect x="218.741" y="51.7152" width="9.09112" height="1.01012" rx="0.505062" transform="rotate(-90 218.741 51.7152)" fill="white"/>
<rect x="234.164" y="61.0586" width="27.5259" height="59.8498" rx="10" transform="rotate(-90 234.164 61.0586)" fill="#E3D2CB"/>
<rect x="269.392" y="54.7456" width="15.0256" height="19.1924" rx="7.5128" transform="rotate(-90 269.392 54.7456)" fill="#D6C0B8"/>
<rect x="272.8" y="51.7153" width="9.09112" height="1.01012" rx="0.505062" transform="rotate(-90 272.8 51.7153)" fill="white"/>
<rect x="276.842" y="51.7152" width="9.09112" height="1.01012" rx="0.505062" transform="rotate(-90 276.842 51.7152)" fill="white"/>
<rect x="280.881" y="51.7153" width="9.09112" height="1.01012" rx="0.505062" transform="rotate(-90 280.881 51.7153)" fill="white"/>
<rect x="284.923" y="51.7153" width="9.09112" height="1.01012" rx="0.505062" transform="rotate(-90 284.923 51.7153)" fill="white"/>
<rect x="241.993" y="54.7455" width="15.0256" height="19.1924" rx="7.5128" transform="rotate(-90 241.993 54.7455)" fill="#D6C0B8"/>
<rect x="245.401" y="51.7153" width="9.09112" height="1.01012" rx="0.505062" transform="rotate(-90 245.401 51.7153)" fill="white"/>
<rect x="249.442" y="51.7152" width="9.09112" height="1.01012" rx="0.505062" transform="rotate(-90 249.442 51.7152)" fill="white"/>
<rect x="253.482" y="51.7153" width="9.09112" height="1.01012" rx="0.505062" transform="rotate(-90 253.482 51.7153)" fill="white"/>
<rect x="257.523" y="51.7152" width="9.09112" height="1.01012" rx="0.505062" transform="rotate(-90 257.523 51.7152)" fill="white"/>
<rect x="300.345" y="61.0584" width="27.5259" height="59.8498" rx="10" transform="rotate(-90 300.345 61.0584)" fill="#E3D2CB"/>
<rect x="335.572" y="54.7454" width="15.0256" height="19.1924" rx="7.5128" transform="rotate(-90 335.572 54.7454)" fill="#D6C0B8"/>
<rect x="338.981" y="51.7151" width="9.09112" height="1.01012" rx="0.505062" transform="rotate(-90 338.981 51.7151)" fill="white"/>
<rect x="343.022" y="51.715" width="9.09112" height="1.01012" rx="0.505062" transform="rotate(-90 343.022 51.715)" fill="white"/>
<rect x="347.062" y="51.715" width="9.09112" height="1.01012" rx="0.505062" transform="rotate(-90 347.062 51.715)" fill="white"/>
<rect x="351.104" y="51.7151" width="9.09112" height="1.01012" rx="0.505062" transform="rotate(-90 351.104 51.7151)" fill="white"/>
<rect x="308.174" y="54.7454" width="15.0256" height="19.1924" rx="7.5128" transform="rotate(-90 308.174 54.7454)" fill="#D6C0B8"/>
<rect x="311.582" y="51.7152" width="9.09112" height="1.01012" rx="0.505062" transform="rotate(-90 311.582 51.7152)" fill="white"/>
<rect x="315.623" y="51.715" width="9.09112" height="1.01012" rx="0.505062" transform="rotate(-90 315.623 51.715)" fill="white"/>
<rect x="319.663" y="51.7152" width="9.09112" height="1.01012" rx="0.505062" transform="rotate(-90 319.663 51.7152)" fill="white"/>
<rect x="323.704" y="51.715" width="9.09112" height="1.01012" rx="0.505062" transform="rotate(-90 323.704 51.715)" fill="white"/>
<rect x="366.524" y="61.0586" width="27.5259" height="59.8498" rx="10" transform="rotate(-90 366.524 61.0586)" fill="#E3D2CB"/>
<rect x="401.753" y="54.7456" width="15.0256" height="19.1924" rx="7.5128" transform="rotate(-90 401.753 54.7456)" fill="#D6C0B8"/>
<rect x="405.161" y="51.7153" width="9.09112" height="1.01012" rx="0.505062" transform="rotate(-90 405.161 51.7153)" fill="white"/>
<rect x="409.203" y="51.7152" width="9.09112" height="1.01012" rx="0.505062" transform="rotate(-90 409.203 51.7152)" fill="white"/>
<rect x="413.242" y="51.7153" width="9.09112" height="1.01012" rx="0.505062" transform="rotate(-90 413.242 51.7153)" fill="white"/>
<rect x="417.284" y="51.7153" width="9.09112" height="1.01012" rx="0.505062" transform="rotate(-90 417.284 51.7153)" fill="white"/>
<rect x="374.354" y="54.7456" width="15.0256" height="19.1924" rx="7.5128" transform="rotate(-90 374.354 54.7456)" fill="#D6C0B8"/>
<rect x="377.762" y="51.7153" width="9.09112" height="1.01012" rx="0.505062" transform="rotate(-90 377.762 51.7153)" fill="white"/>
<rect x="381.803" y="51.7152" width="9.09112" height="1.01012" rx="0.505062" transform="rotate(-90 381.803 51.7152)" fill="white"/>
<rect x="385.843" y="51.7153" width="9.09112" height="1.01012" rx="0.505062" transform="rotate(-90 385.843 51.7153)" fill="white"/>
<rect x="389.884" y="51.7152" width="9.09112" height="1.01012" rx="0.505062" transform="rotate(-90 389.884 51.7152)" fill="white"/>
<rect x="432.705" y="61.0586" width="27.5259" height="59.8498" rx="10" transform="rotate(-90 432.705 61.0586)" fill="#E3D2CB"/>
<rect x="467.933" y="54.7456" width="15.0256" height="19.1924" rx="7.5128" transform="rotate(-90 467.933 54.7456)" fill="#D6C0B8"/>
<rect x="471.341" y="51.7153" width="9.09112" height="1.01012" rx="0.505062" transform="rotate(-90 471.341 51.7153)" fill="white"/>
<rect x="475.383" y="51.7153" width="9.09112" height="1.01012" rx="0.505062" transform="rotate(-90 475.383 51.7153)" fill="white"/>
<rect x="479.422" y="51.7152" width="9.09112" height="1.01012" rx="0.505062" transform="rotate(-90 479.422 51.7152)" fill="white"/>
<rect x="483.464" y="51.7153" width="9.09112" height="1.01012" rx="0.505062" transform="rotate(-90 483.464 51.7153)" fill="white"/>
<rect x="440.533" y="54.7455" width="15.0256" height="19.1924" rx="7.5128" transform="rotate(-90 440.533 54.7455)" fill="#D6C0B8"/>
<rect x="443.942" y="51.7153" width="9.09112" height="1.01012" rx="0.505062" transform="rotate(-90 443.942 51.7153)" fill="white"/>
<rect x="447.983" y="51.7152" width="9.09112" height="1.01012" rx="0.505062" transform="rotate(-90 447.983 51.7152)" fill="white"/>
<rect x="452.023" y="51.7153" width="9.09112" height="1.01012" rx="0.505062" transform="rotate(-90 452.023 51.7153)" fill="white"/>
<rect x="456.064" y="51.7152" width="9.09112" height="1.01012" rx="0.505062" transform="rotate(-90 456.064 51.7152)" fill="white"/>
<path d="M56.4388 7.6933L59.0788 6.0333H60.4988V18.0133C60.4988 18.48 60.5188 18.7533 60.5588 18.8333C60.5988 18.9133 60.7254 18.9666 60.9388 18.9933L62.0388 19.1133V19.6333H56.8188V19.1133L58.3188 18.9933C58.5321 18.98 58.6588 18.9333 58.6988 18.8533C58.7388 18.76 58.7588 18.48 58.7588 18.0133V6.9933L56.7788 8.2333L56.4388 7.6933ZM66.2415 19.1133V19.6333H62.4415V19.1133L63.5215 18.9933C63.6682 18.98 63.7749 18.96 63.8415 18.9333C63.9082 18.8933 63.9682 18.8133 64.0215 18.6933C64.0882 18.56 64.1682 18.3333 64.2615 18.0133L68.1215 6.0333H69.3815L73.2815 18.0133C73.3749 18.3333 73.4482 18.56 73.5015 18.6933C73.5682 18.8133 73.6349 18.8933 73.7015 18.9333C73.7682 18.96 73.8682 18.98 74.0015 18.9933L75.1015 19.1133V19.6333H70.2415V19.1133L71.3415 18.9933C71.5549 18.9666 71.6682 18.9133 71.6815 18.8333C71.7082 18.74 71.6482 18.4666 71.5015 18.0133L70.6815 15.4533H65.8015L64.9815 18.0133C64.8349 18.4666 64.7682 18.74 64.7815 18.8333C64.8082 18.9133 64.9282 18.9666 65.1415 18.9933L66.2415 19.1133ZM66.0015 14.8133H70.4815L68.2415 7.8533L66.0015 14.8133Z" fill="white"/>
<path d="M321.877 4.3933H322.397V7.5733H316.237L315.997 11.8533C316.384 11.5866 316.804 11.3866 317.257 11.2533C317.724 11.12 318.204 11.0533 318.697 11.0533C320.017 11.0533 321.064 11.46 321.837 12.2733C322.611 13.0733 322.997 14.1466 322.997 15.4933C322.997 16.2533 322.851 16.9666 322.557 17.6333C322.264 18.2866 321.791 18.82 321.137 19.2333C320.497 19.6333 319.657 19.8333 318.617 19.8333C317.697 19.8333 316.897 19.6066 316.217 19.1533C315.537 18.6866 315.044 17.8733 314.737 16.7133L315.997 16.3533C316.157 17.4466 316.471 18.1933 316.937 18.5933C317.404 18.9933 317.931 19.1933 318.517 19.1933C319.344 19.1933 319.971 18.8933 320.397 18.2933C320.837 17.68 321.057 16.7466 321.057 15.4933C321.057 14.3866 320.864 13.4866 320.477 12.7933C320.104 12.0866 319.437 11.7333 318.477 11.7333C318.024 11.7333 317.557 11.82 317.077 11.9933C316.597 12.1533 316.124 12.44 315.657 12.8533L315.257 12.6733L315.637 6.0333H320.597C321.077 6.0333 321.364 6.0133 321.457 5.9733C321.564 5.91997 321.637 5.76663 321.677 5.5133L321.877 4.3933ZM324.544 6.5733V6.0333H329.984C331.291 6.0333 332.271 6.33997 332.924 6.9533C333.577 7.5533 333.904 8.32663 333.904 9.2733V9.8133C333.904 10.5066 333.697 11.1 333.284 11.5933C332.871 12.0866 332.291 12.4333 331.544 12.6333C332.477 12.7933 333.204 13.1466 333.724 13.6933C334.244 14.24 334.504 14.9266 334.504 15.7533V16.2933C334.504 17.2666 334.164 18.0666 333.484 18.6933C332.817 19.32 331.817 19.6333 330.484 19.6333H324.544V19.1133L325.644 18.9933C325.857 18.9666 325.984 18.9133 326.024 18.8333C326.064 18.7533 326.084 18.48 326.084 18.0133V7.6533C326.084 7.18663 326.064 6.9133 326.024 6.8333C325.984 6.7533 325.857 6.69997 325.644 6.6733L324.544 6.5733ZM329.984 6.6733H327.824V12.3933H329.984C331.371 12.3933 332.064 11.5866 332.064 9.9733V9.1533C332.064 7.49997 331.371 6.6733 329.984 6.6733ZM330.484 13.0333H327.824V18.9933H330.484C331.937 18.9933 332.664 18.1333 332.664 16.4133V15.5933C332.664 14.7666 332.477 14.1333 332.104 13.6933C331.744 13.2533 331.204 13.0333 330.484 13.0333Z" fill="white"/>
<path d="M127.502 15.04H128.022V19H120.002V17.94C120.002 17.02 120.155 16.2533 120.462 15.64C120.769 15.0267 121.162 14.5067 121.642 14.08C122.135 13.64 122.662 13.24 123.222 12.88C123.702 12.56 124.169 12.2333 124.622 11.9C125.075 11.5667 125.449 11.16 125.742 10.68C126.049 10.1867 126.202 9.57333 126.202 8.84C126.202 7.82667 126.002 7.07333 125.602 6.58C125.215 6.08667 124.669 5.84 123.962 5.84C123.042 5.84 122.402 6.17333 122.042 6.84C121.695 7.49333 121.589 8.43333 121.722 9.66L119.982 9.34C119.849 8.62 119.902 7.94667 120.142 7.32C120.395 6.69333 120.842 6.18667 121.482 5.8C122.122 5.4 122.955 5.2 123.982 5.2C124.969 5.2 125.769 5.37333 126.382 5.72C126.995 6.06667 127.442 6.52 127.722 7.08C128.002 7.64 128.142 8.24 128.142 8.88C128.142 9.61333 128.002 10.2267 127.722 10.72C127.442 11.2133 127.075 11.62 126.622 11.94C126.169 12.26 125.675 12.5467 125.142 12.8C124.609 13.04 124.089 13.2933 123.582 13.56C123.089 13.8133 122.635 14.1133 122.222 14.46C121.822 14.8067 121.489 15.2267 121.222 15.72C120.969 16.2 120.815 16.7933 120.762 17.5H125.922C126.389 17.5 126.669 17.4733 126.762 17.42C126.869 17.3533 126.949 17.2067 127.002 16.98L127.502 15.04ZM132.915 18.48V19H129.115V18.48L130.195 18.36C130.342 18.3467 130.449 18.3267 130.515 18.3C130.582 18.26 130.642 18.18 130.695 18.06C130.762 17.9267 130.842 17.7 130.935 17.38L134.795 5.4H136.055L139.955 17.38C140.049 17.7 140.122 17.9267 140.175 18.06C140.242 18.18 140.309 18.26 140.375 18.3C140.442 18.3267 140.542 18.3467 140.675 18.36L141.775 18.48V19H136.915V18.48L138.015 18.36C138.229 18.3333 138.342 18.28 138.355 18.2C138.382 18.1067 138.322 17.8333 138.175 17.38L137.355 14.82H132.475L131.655 17.38C131.509 17.8333 131.442 18.1067 131.455 18.2C131.482 18.28 131.602 18.3333 131.815 18.36L132.915 18.48ZM132.675 14.18H137.155L134.915 7.22L132.675 14.18Z" fill="white"/>
<path d="M388.047 15.18C388.047 15.9933 387.867 16.7067 387.507 17.32C387.147 17.92 386.647 18.3867 386.007 18.72C385.367 19.04 384.62 19.2 383.767 19.2C382.314 19.2 381.187 18.6667 380.387 17.6C379.6 16.5333 379.207 14.9667 379.207 12.9V11.64C379.207 9.44 379.614 7.82 380.427 6.78C381.24 5.72667 382.334 5.2 383.707 5.2C384.6 5.2 385.36 5.38 385.987 5.74C386.627 6.1 387.1 6.57333 387.407 7.16C387.727 7.74667 387.847 8.38667 387.767 9.08L386.047 9.38C386.154 8.23333 386.007 7.36 385.607 6.76C385.207 6.14667 384.567 5.84 383.687 5.84C383.207 5.84 382.767 5.96667 382.367 6.22C381.98 6.46 381.674 6.91333 381.447 7.58C381.22 8.24667 381.107 9.20667 381.107 10.46V12.4C381.494 11.9067 381.94 11.5533 382.447 11.34C382.967 11.1133 383.52 11 384.107 11C385.294 11 386.247 11.36 386.967 12.08C387.687 12.8 388.047 13.7667 388.047 14.98V15.18ZM381.107 14.08C381.107 15.2133 381.207 16.1067 381.407 16.76C381.62 17.4133 381.927 17.88 382.327 18.16C382.74 18.4267 383.234 18.56 383.807 18.56C384.527 18.56 385.1 18.3133 385.527 17.82C385.967 17.3133 386.187 16.4467 386.187 15.22V15.02C386.187 13.9933 385.994 13.1933 385.607 12.62C385.22 12.0333 384.62 11.74 383.807 11.74C383.327 11.74 382.84 11.8667 382.347 12.12C381.867 12.3733 381.454 12.8 381.107 13.4V14.08ZM389.763 5.94V5.4H395.203C396.51 5.4 397.49 5.70667 398.143 6.32C398.796 6.92 399.123 7.69333 399.123 8.64V9.18C399.123 9.87333 398.916 10.4667 398.503 10.96C398.09 11.4533 397.51 11.8 396.763 12C397.696 12.16 398.423 12.5133 398.943 13.06C399.463 13.6067 399.723 14.2933 399.723 15.12V15.66C399.723 16.6333 399.383 17.4333 398.703 18.06C398.036 18.6867 397.036 19 395.703 19H389.763V18.48L390.863 18.36C391.076 18.3333 391.203 18.28 391.243 18.2C391.283 18.12 391.303 17.8467 391.303 17.38V7.02C391.303 6.55333 391.283 6.28 391.243 6.2C391.203 6.12 391.076 6.06667 390.863 6.04L389.763 5.94ZM395.203 6.04H393.043V11.76H395.203C396.59 11.76 397.283 10.9533 397.283 9.34V8.52C397.283 6.86667 396.59 6.04 395.203 6.04ZM395.703 12.4H393.043V18.36H395.703C397.156 18.36 397.883 17.5 397.883 15.78V14.96C397.883 14.1333 397.696 13.5 397.323 13.06C396.963 12.62 396.423 12.4 395.703 12.4Z" fill="white"/>
<path d="M188.531 12.9533H187.991V12.3133H188.531C189.638 12.3133 190.411 12.0333 190.851 11.4733C191.304 10.9133 191.531 10.1933 191.531 9.3133C191.531 8.37997 191.338 7.6733 190.951 7.1933C190.564 6.7133 190.018 6.4733 189.311 6.4733C188.391 6.4733 187.751 6.80663 187.391 7.4733C187.044 8.12663 186.938 9.06663 187.071 10.2933L185.331 9.9733C185.211 9.2533 185.271 8.57997 185.511 7.9533C185.764 7.32663 186.204 6.81997 186.831 6.4333C187.471 6.0333 188.304 5.8333 189.331 5.8333C190.318 5.8333 191.111 5.99997 191.711 6.3333C192.324 6.6533 192.771 7.07997 193.051 7.6133C193.331 8.1333 193.471 8.69997 193.471 9.3133C193.471 10.2466 193.184 10.9866 192.611 11.5333C192.051 12.08 191.238 12.4466 190.171 12.6333C191.304 12.8066 192.171 13.1933 192.771 13.7933C193.384 14.3933 193.691 15.2066 193.691 16.2333C193.691 16.8866 193.531 17.4866 193.211 18.0333C192.904 18.58 192.424 19.02 191.771 19.3533C191.131 19.6733 190.298 19.8333 189.271 19.8333C188.298 19.8333 187.444 19.6066 186.711 19.1533C185.991 18.7 185.478 17.8866 185.171 16.7133L186.431 16.3533C186.538 17.0866 186.724 17.66 186.991 18.0733C187.271 18.4866 187.598 18.78 187.971 18.9533C188.358 19.1133 188.764 19.1933 189.191 19.1933C190.898 19.1933 191.751 18.2066 191.751 16.2333C191.751 15.2733 191.511 14.4866 191.031 13.8733C190.551 13.26 189.718 12.9533 188.531 12.9533ZM195.43 6.5733V6.0333H200.87C202.176 6.0333 203.156 6.33997 203.81 6.9533C204.463 7.5533 204.79 8.32663 204.79 9.2733V9.8133C204.79 10.5066 204.583 11.1 204.17 11.5933C203.756 12.0866 203.176 12.4333 202.43 12.6333C203.363 12.7933 204.09 13.1466 204.61 13.6933C205.13 14.24 205.39 14.9266 205.39 15.7533V16.2933C205.39 17.2666 205.05 18.0666 204.37 18.6933C203.703 19.32 202.703 19.6333 201.37 19.6333H195.43V19.1133L196.53 18.9933C196.743 18.9666 196.87 18.9133 196.91 18.8333C196.95 18.7533 196.97 18.48 196.97 18.0133V7.6533C196.97 7.18663 196.95 6.9133 196.91 6.8333C196.87 6.7533 196.743 6.69997 196.53 6.6733L195.43 6.5733ZM200.87 6.6733H198.71V12.3933H200.87C202.256 12.3933 202.95 11.5866 202.95 9.9733V9.1533C202.95 7.49997 202.256 6.6733 200.87 6.6733ZM201.37 13.0333H198.71V18.9933H201.37C202.823 18.9933 203.55 18.1333 203.55 16.4133V15.5933C203.55 14.7666 203.363 14.1333 202.99 13.6933C202.63 13.2533 202.09 13.0333 201.37 13.0333Z" fill="white"/>
<path d="M452.716 10.0333H452.196V6.0333H460.456V7.4133C459.856 8.18663 459.336 8.96663 458.896 9.7533C458.456 10.54 458.089 11.3933 457.796 12.3133C457.502 13.2333 457.269 14.2866 457.096 15.4733C456.922 16.66 456.802 18.0466 456.736 19.6333H454.616C454.762 18.4066 454.956 17.2733 455.196 16.2333C455.449 15.18 455.769 14.18 456.156 13.2333C456.556 12.2866 457.042 11.3533 457.616 10.4333C458.202 9.5133 458.896 8.55997 459.696 7.5733H454.296C453.829 7.5733 453.549 7.60663 453.456 7.6733C453.362 7.72663 453.282 7.86663 453.216 8.0933L452.716 10.0333ZM467.069 19.8333C465.375 19.8333 464.082 19.2666 463.189 18.1333C462.309 17 461.869 15.48 461.869 13.5733V12.0733C461.869 10.82 462.055 9.72663 462.429 8.7933C462.815 7.85997 463.382 7.1333 464.129 6.6133C464.875 6.0933 465.789 5.8333 466.869 5.8333C467.869 5.8333 468.695 6.0333 469.349 6.4333C470.002 6.81997 470.475 7.3333 470.769 7.9733C471.062 8.59997 471.155 9.28663 471.049 10.0333L469.329 10.4533C469.475 9.1733 469.329 8.1933 468.889 7.5133C468.449 6.81997 467.775 6.4733 466.869 6.4733C465.855 6.4733 465.082 6.8333 464.549 7.5533C464.029 8.2733 463.769 9.44663 463.769 11.0733V14.5733C463.769 16.2133 464.049 17.3933 464.609 18.1133C465.169 18.8333 466.002 19.1933 467.109 19.1933C467.549 19.1933 467.969 19.12 468.369 18.9733C468.769 18.8133 469.109 18.5466 469.389 18.1733C469.669 17.8 469.842 17.28 469.909 16.6133L471.149 16.9333C470.855 18 470.335 18.7533 469.589 19.1933C468.855 19.62 468.015 19.8333 467.069 19.8333Z" fill="white"/>
<path d="M255.43 18.0133V16.1133H249.65V15.4733C250.33 14.7533 250.917 14.0533 251.41 13.3733C251.903 12.68 252.33 11.9666 252.69 11.2333C253.05 10.5 253.363 9.7133 253.63 8.8733C253.91 8.01997 254.163 7.0733 254.39 6.0333H256.51C255.977 7.9133 255.197 9.59997 254.17 11.0933C253.143 12.5866 251.917 14.0466 250.49 15.4733H255.43V12.3333L257.17 12.0533V15.4733H258.71V16.1133H257.17V18.0133C257.17 18.48 257.19 18.7533 257.23 18.8333C257.27 18.9133 257.397 18.9666 257.61 18.9933L258.71 19.1133V19.6333H253.49V19.1133L254.99 18.9933C255.203 18.98 255.33 18.9333 255.37 18.8533C255.41 18.76 255.43 18.48 255.43 18.0133ZM259.843 6.5733V6.0333H265.283C266.59 6.0333 267.57 6.33997 268.223 6.9533C268.876 7.5533 269.203 8.32663 269.203 9.2733V9.8133C269.203 10.5066 268.996 11.1 268.583 11.5933C268.17 12.0866 267.59 12.4333 266.843 12.6333C267.776 12.7933 268.503 13.1466 269.023 13.6933C269.543 14.24 269.803 14.9266 269.803 15.7533V16.2933C269.803 17.2666 269.463 18.0666 268.783 18.6933C268.116 19.32 267.116 19.6333 265.783 19.6333H259.843V19.1133L260.943 18.9933C261.156 18.9666 261.283 18.9133 261.323 18.8333C261.363 18.7533 261.383 18.48 261.383 18.0133V7.6533C261.383 7.18663 261.363 6.9133 261.323 6.8333C261.283 6.7533 261.156 6.69997 260.943 6.6733L259.843 6.5733ZM265.283 6.6733H263.123V12.3933H265.283C266.67 12.3933 267.363 11.5866 267.363 9.9733V9.1533C267.363 7.49997 266.67 6.6733 265.283 6.6733ZM265.783 13.0333H263.123V18.9933H265.783C267.236 18.9933 267.963 18.1333 267.963 16.4133V15.5933C267.963 14.7666 267.776 14.1333 267.403 13.6933C267.043 13.2533 266.503 13.0333 265.783 13.0333Z" fill="white"/>
<defs>
<linearGradient id="paint0_linear_1046_503" x1="1" y1="49" x2="1" y2="597" gradientUnits="userSpaceOnUse">
<stop offset="0.0447915" stop-color="#E1E1E1"/>
<stop offset="0.508333" stop-color="#D9D9D9"/>
<stop offset="1" stop-color="#D9D9D9" stop-opacity="0.58"/>
</linearGradient>
</defs>
</svg>
