<svg width="84" height="94" viewBox="0 0 84 94" fill="none" xmlns="http://www.w3.org/2000/svg">
<g filter="url(#filter0_d_402_249)">
<g clip-path="url(#clip0_402_249)">
<path d="M51.5303 14.1496C51.5535 14.1273 51.5766 14.1107 51.5998 14.0884L50.635 13.0853L49.6348 14.0473C48.3853 15.2492 46.4912 15.3631 45.1186 14.4118C44.9503 14.2951 44.7469 14.2403 44.5428 14.2565C44.3387 14.2728 44.1465 14.3591 43.9988 14.501L17.5182 39.9707C17.2138 40.2635 17.1592 40.729 17.3856 41.0862C17.8286 41.7832 18.0168 42.6119 17.9184 43.4318C17.82 44.2518 17.441 45.0124 16.8457 45.5848L15.8455 46.5468L16.8103 47.5499C16.8307 47.5247 16.851 47.5052 16.8742 47.4829C17.0872 47.278 17.3728 47.1662 17.6683 47.1719C17.9637 47.1777 18.2448 47.3006 18.4497 47.5135C18.6545 47.7265 18.7664 48.0122 18.7606 48.3076C18.7549 48.6031 18.632 48.8841 18.419 49.089C18.3958 49.1113 18.3727 49.1279 18.3495 49.1502L18.9992 49.8257C19.0196 49.8005 19.0399 49.781 19.0631 49.7587C19.2761 49.5538 19.5618 49.442 19.8572 49.4477C20.1527 49.4535 20.4337 49.5764 20.6386 49.7894C20.8435 50.0023 20.9553 50.288 20.9496 50.5834C20.9438 50.8789 20.8209 51.16 20.6079 51.3648C20.5847 51.3871 20.5617 51.4037 20.5385 51.426L21.1882 52.1015C21.2086 52.0763 21.2289 52.0568 21.2521 52.0345C21.6984 51.6108 22.4037 51.6245 22.8303 52.0681C22.9318 52.1735 23.0114 52.2979 23.0648 52.4342C23.1181 52.5704 23.1441 52.7158 23.1413 52.8621C23.1384 53.0084 23.1068 53.1527 23.0482 53.2868C22.9896 53.4209 22.9051 53.5421 22.7997 53.6435C22.7765 53.6658 22.7534 53.6825 22.7302 53.7048L23.3799 54.3803C23.4003 54.355 23.4206 54.3355 23.4438 54.3132C23.8874 53.8866 24.5954 53.9032 25.0221 54.3468C25.4487 54.7903 25.435 55.4956 24.9914 55.9222C24.9682 55.9445 24.9451 55.9612 24.9219 55.9835L25.5716 56.659C25.592 56.6338 25.6123 56.6142 25.6355 56.5919C25.8485 56.3871 26.1342 56.2752 26.4296 56.281C26.7251 56.2867 27.0061 56.4096 27.211 56.6226C27.4158 56.8356 27.5277 57.1212 27.522 57.4167C27.5162 57.7121 27.3933 57.9932 27.1803 58.198C27.1571 58.2204 27.1341 58.237 27.1109 58.2593L27.7606 58.9348C27.781 58.9096 27.8013 58.8901 27.8245 58.8677C28.0375 58.6629 28.3231 58.551 28.6186 58.5568C28.914 58.5625 29.1951 58.6854 29.3999 58.8984C29.6048 59.1114 29.7166 59.397 29.7109 59.6925C29.7051 59.9879 29.5823 60.269 29.3693 60.4739C29.3461 60.4962 29.323 60.5128 29.2998 60.5351L30.2646 61.5382L31.2648 60.5762C32.5143 59.3743 34.4084 59.2604 35.781 60.2117C35.9493 60.3284 36.1527 60.3832 36.3568 60.367C36.5609 60.3507 36.7531 60.2644 36.9008 60.1225L63.3814 34.6528C63.6858 34.36 63.7404 33.8945 63.514 33.5373C63.071 32.8404 62.8828 32.0116 62.9812 31.1917C63.0796 30.3717 63.4586 29.6111 64.0539 29.0387L65.0541 28.0767L64.0921 27.0765C64.0717 27.1017 64.0514 27.1212 64.0282 27.1435C63.8152 27.3484 63.5296 27.4602 63.2341 27.4545C62.9387 27.4487 62.6576 27.3258 62.4527 27.1129C62.2479 26.8999 62.136 26.6142 62.1418 26.3188C62.1475 26.0233 62.2704 25.7423 62.4834 25.5374C62.5066 25.5151 62.5297 25.4985 62.5529 25.4762L61.9031 24.8007C61.8827 24.8259 61.8624 24.8454 61.8393 24.8677C61.6263 25.0726 61.3406 25.1844 61.0452 25.1787C60.7497 25.1729 60.4686 25.05 60.2638 24.837C60.0589 24.6241 59.9471 24.3384 59.9528 24.043C59.9586 23.7475 60.0815 23.4664 60.2944 23.2616C60.3176 23.2393 60.3407 23.2227 60.3639 23.2004L59.7142 22.5249C59.6938 22.5501 59.6735 22.5696 59.6503 22.5919C59.4373 22.7967 59.1517 22.9086 58.8562 22.9029C58.5608 22.8971 58.2797 22.7742 58.0749 22.5612C57.87 22.3483 57.7581 22.0626 57.7639 21.7672C57.7696 21.4717 57.8925 21.1906 58.1055 20.9858C58.1287 20.9635 58.1518 20.9468 58.175 20.9245L57.5253 20.249C57.5049 20.2743 57.4846 20.2938 57.4614 20.3161C57.2484 20.5209 56.9628 20.6328 56.6673 20.627C56.3718 20.6213 56.0908 20.4984 55.8859 20.2854C55.6811 20.0724 55.5692 19.7868 55.575 19.4913C55.5807 19.1959 55.7036 18.9148 55.9166 18.71C55.9398 18.6877 55.9628 18.671 55.986 18.6487L55.3363 17.9732C55.3159 17.9984 55.2956 18.018 55.2724 18.0403C55.0594 18.2451 54.7738 18.357 54.4784 18.3512C54.1829 18.3455 53.9018 18.2226 53.697 18.0096C53.4921 17.7966 53.3803 17.511 53.386 17.2155C53.3918 16.9201 53.5146 16.639 53.7276 16.4342C53.7508 16.4118 53.7739 16.3952 53.7971 16.3729L53.1474 15.6974C53.127 15.7226 53.1067 15.7421 53.0835 15.7645C52.8705 15.9693 52.5849 16.0812 52.2894 16.0754C51.994 16.0697 51.7129 15.9468 51.508 15.7338C51.073 15.2815 51.0868 14.5763 51.5303 14.1496Z" fill="white" fill-opacity="0.92"/>
<path d="M59.2661 33.4319L35.8411 55.9626C35.0236 56.749 33.7211 56.7236 32.9348 55.9061L21.5802 44.1009C20.7938 43.2833 20.8192 41.9809 21.6367 41.1945L45.0616 18.6638C45.8792 17.8774 47.1817 17.9028 47.968 18.7203L59.3226 30.5255C60.109 31.3431 60.0836 32.6456 59.2661 33.4319Z" stroke="#5E3B20" stroke-opacity="0.77" stroke-width="3" stroke-miterlimit="10"/>
<path d="M25.1938 37.7731L41.5072 22.0824L55.7144 36.8534L39.401 52.5441L25.1938 37.7731Z" stroke="#5E3B20" stroke-opacity="0.77" stroke-width="2" stroke-miterlimit="10"/>
<path opacity="0.8" d="M33.291 39.3445L42.7596 30.2374M39.5229 43.0617L46.2315 36.6092" stroke="#5E3B20" stroke-opacity="0.77" stroke-width="9" stroke-miterlimit="10" stroke-linecap="round"/>
<path opacity="0.5" d="M46.3573 22.2564L55.7265 31.9975M25.1763 42.6289L34.5455 52.37" stroke="#5E3B20" stroke-opacity="0.77" stroke-width="6" stroke-miterlimit="10"/>
</g>
<g clip-path="url(#clip1_402_249)">
<path d="M65.9977 35.4907C66.0279 35.4795 66.0557 35.4735 66.0859 35.4623L65.6023 34.1572L64.301 34.6394C62.6753 35.2417 60.8935 34.5893 60.0154 33.1687C59.9078 32.9945 59.7432 32.8629 59.5497 32.7963C59.3561 32.7296 59.1454 32.732 58.9533 32.803L24.5008 45.5684C24.1048 45.7152 23.8687 46.1201 23.9335 46.5379C24.061 47.3539 23.9024 48.1888 23.4846 48.9011C23.0667 49.6134 22.4153 50.1592 21.6409 50.446L20.3395 50.9282L20.8231 52.2332C20.8519 52.2183 20.8783 52.2085 20.9085 52.1973C21.1856 52.0946 21.4921 52.1063 21.7606 52.2296C22.0292 52.3529 22.2377 52.5779 22.3404 52.855C22.4431 53.1321 22.4315 53.4386 22.3081 53.7072C22.1848 53.9757 21.9598 54.1843 21.6827 54.2869C21.6525 54.2981 21.6247 54.3041 21.5946 54.3153L21.9202 55.1942C21.949 55.1792 21.9754 55.1694 22.0056 55.1583C22.2827 55.0556 22.5892 55.0672 22.8577 55.1905C23.1263 55.3139 23.3348 55.5388 23.4375 55.8159C23.5402 56.093 23.5286 56.3996 23.4052 56.6681C23.2819 56.9367 23.0569 57.1452 22.7798 57.2479C22.7496 57.2591 22.7218 57.2651 22.6917 57.2763L23.0173 58.1551C23.0461 58.1402 23.0725 58.1304 23.1027 58.1192C23.6812 57.9091 24.3222 58.2036 24.536 58.7807C24.5868 58.9179 24.6102 59.0637 24.6046 59.21C24.5991 59.3562 24.5648 59.4999 24.5037 59.6328C24.4427 59.7658 24.356 59.8854 24.2487 59.9849C24.1414 60.0844 24.0155 60.1618 23.8783 60.2126C23.8481 60.2238 23.8203 60.2298 23.7902 60.241L24.1158 61.1198C24.1446 61.1049 24.171 61.0951 24.2012 61.0839C24.7783 60.8701 25.4207 61.1683 25.6345 61.7454C25.8483 62.3225 25.5539 62.9635 24.9768 63.1773C24.9466 63.1885 24.9188 63.1945 24.8887 63.2057L25.2143 64.0845C25.2431 64.0696 25.2695 64.0598 25.2997 64.0486C25.5768 63.9459 25.8833 63.9576 26.1518 64.0809C26.4204 64.2042 26.6289 64.4292 26.7316 64.7063C26.8343 64.9834 26.8227 65.2899 26.6993 65.5585C26.576 65.827 26.351 66.0356 26.0739 66.1382C26.0437 66.1494 26.0159 66.1554 25.9858 66.1666L26.3114 67.0455C26.3402 67.0305 26.3666 67.0207 26.3968 67.0096C26.6739 66.9069 26.9804 66.9185 27.2489 67.0418C27.5175 67.1652 27.726 67.3901 27.8287 67.6672C27.9314 67.9443 27.9198 68.2509 27.7964 68.5194C27.6731 68.788 27.4481 68.9965 27.171 69.0992C27.1408 69.1104 27.113 69.1164 27.0829 69.1276L27.5664 70.4326L28.8677 69.9505C30.4934 69.3481 32.2752 70.0006 33.1533 71.4211C33.2609 71.5953 33.4255 71.7269 33.6191 71.7936C33.8127 71.8602 34.0233 71.8579 34.2154 71.7869L68.6679 59.0214C69.0639 58.8747 69.3 58.4698 69.2353 58.0519C69.1077 57.236 69.2663 56.4011 69.6842 55.6888C70.102 54.9765 70.7534 54.4306 71.5279 54.1439L72.8292 53.6617L72.347 52.3604C72.3182 52.3753 72.2918 52.3851 72.2617 52.3963C71.9845 52.499 71.678 52.4874 71.4095 52.364C71.1409 52.2407 70.9324 52.0157 70.8297 51.7386C70.727 51.4615 70.7386 51.155 70.862 50.8864C70.9853 50.6179 71.2103 50.4093 71.4874 50.3067C71.5176 50.2955 71.5454 50.2895 71.5755 50.2783L71.2499 49.3995C71.2211 49.4144 71.1947 49.4242 71.1646 49.4354C70.8874 49.538 70.5809 49.5264 70.3124 49.4031C70.0438 49.2797 69.8353 49.0548 69.7326 48.7777C69.6299 48.5006 69.6415 48.194 69.7649 47.9255C69.8882 47.657 70.1132 47.4484 70.3903 47.3457C70.4205 47.3346 70.4483 47.3285 70.4784 47.3174L70.1528 46.4385C70.124 46.4535 70.0976 46.4632 70.0675 46.4744C69.7904 46.5771 69.4838 46.5655 69.2153 46.4422C68.9467 46.3188 68.7382 46.0938 68.6355 45.8167C68.5328 45.5396 68.5444 45.2331 68.6678 44.9646C68.7911 44.696 69.0161 44.4875 69.2932 44.3848C69.3234 44.3736 69.3512 44.3676 69.3813 44.3564L69.0557 43.4776C69.0269 43.4925 69.0005 43.5023 68.9704 43.5135C68.6933 43.6162 68.3867 43.6046 68.1182 43.4812C67.8496 43.3579 67.6411 43.1329 67.5384 42.8558C67.4357 42.5787 67.4474 42.2722 67.5707 42.0036C67.694 41.7351 67.919 41.5265 68.1961 41.4239C68.2263 41.4127 68.2541 41.4067 68.2842 41.3955L67.9586 40.5166C67.9298 40.5316 67.9034 40.5414 67.8733 40.5526C67.5962 40.6552 67.2896 40.6436 67.0211 40.5203C66.7525 40.3969 66.544 40.172 66.4413 39.8949C66.3386 39.6178 66.3503 39.3112 66.4736 39.0427C66.5969 38.7741 66.8219 38.5656 67.099 38.4629C67.1292 38.4517 67.157 38.4457 67.1871 38.4345L66.8615 37.5557C66.8327 37.5707 66.8063 37.5804 66.7762 37.5916C66.4991 37.6943 66.1925 37.6827 65.924 37.5593C65.6554 37.436 65.4469 37.211 65.3442 36.9339C65.1262 36.3455 65.4206 35.7045 65.9977 35.4907Z" fill="white" fill-opacity="0.92"/>
<path d="M65.383 56.2576L34.9061 67.55C33.8424 67.9442 32.6586 67.4004 32.2645 66.3368L26.5735 50.9776C26.1794 49.9139 26.7231 48.7301 27.7868 48.336L58.2637 37.0436C59.3274 36.6495 60.5112 37.1932 60.9053 38.2569L66.5963 53.616C66.9904 54.6797 66.4467 55.8635 65.383 56.2576Z" stroke="#5E3B20" stroke-opacity="0.77" stroke-width="3" stroke-miterlimit="10"/>
<path d="M32.415 46.6212L53.6395 38.757L60.7602 57.9748L39.5357 65.839L32.415 46.6212Z" stroke="#5E3B20" stroke-opacity="0.77" stroke-width="2" stroke-miterlimit="10"/>
<path opacity="0.5" d="M58.016 40.8547L62.7118 53.5282M30.4585 51.0654L35.1544 63.739" stroke="#5E3B20" stroke-opacity="0.77" stroke-width="6" stroke-miterlimit="10"/>
<path opacity="0.8" d="M39.5283 51.1728L51.9392 46.8644M43.6325 57.1569L52.4257 54.1044" stroke="#5E3B20" stroke-opacity="0.77" stroke-width="9" stroke-miterlimit="10" stroke-linecap="round"/>
</g>
</g>
<defs>
<filter id="filter0_d_402_249" x="0.0507812" y="0.912674" width="83.6191" height="92.4688" filterUnits="userSpaceOnUse" color-interpolation-filters="sRGB">
<feFlood flood-opacity="0" result="BackgroundImageFix"/>
<feColorMatrix in="SourceAlpha" type="matrix" values="0 0 0 0 0 0 0 0 0 0 0 0 0 0 0 0 0 0 127 0" result="hardAlpha"/>
<feOffset dy="4"/>
<feGaussianBlur stdDeviation="2"/>
<feComposite in2="hardAlpha" operator="out"/>
<feColorMatrix type="matrix" values="0 0 0 0 0 0 0 0 0 0 0 0 0 0 0 0 0 0 0.25 0"/>
<feBlend mode="normal" in2="BackgroundImageFix" result="effect1_dropShadow_402_249"/>
<feBlend mode="normal" in="SourceGraphic" in2="effect1_dropShadow_402_249" result="shape"/>
</filter>
<clipPath id="clip0_402_249">
<rect width="51.4879" height="51.4879" fill="white" transform="translate(4.05078 36.6049) rotate(-43.8853)"/>
</clipPath>
<clipPath id="clip1_402_249">
<rect width="51.4879" height="51.4879" fill="white" transform="translate(13.5005 37.1012) rotate(-20.3309)"/>
</clipPath>
</defs>
</svg>
