<svg width="62" height="61" viewBox="0 0 62 61" fill="none" xmlns="http://www.w3.org/2000/svg">
<g clip-path="url(#clip0_402_270)">
<path fill-rule="evenodd" clip-rule="evenodd" d="M29.1032 5.62837C30.0955 5.25711 31.1797 5.2087 32.2011 5.49007L32.6336 5.62837L50.2352 12.229C51.1277 12.5636 51.9067 13.145 52.4814 13.9054C53.0562 14.6658 53.403 15.5738 53.4815 16.5238L53.4991 16.9387V30.424C53.499 34.4986 52.3988 38.4976 50.3147 41.9988C48.2306 45.5 45.2399 48.3737 41.6582 50.3163L40.9894 50.6659L32.5557 54.8827C32.0913 55.1146 31.5841 55.2481 31.0657 55.2749C30.5474 55.3017 30.0291 55.2213 29.5433 55.0386L29.1812 54.8827L20.7475 50.6659C17.103 48.8436 14.0181 46.0711 11.8185 42.6411C9.61885 39.2111 8.3861 35.2508 8.25037 31.1784L8.23779 30.424V16.9387C8.23781 15.986 8.50842 15.0529 9.01813 14.2481C9.52784 13.4432 10.2557 12.7997 11.1169 12.3924L11.5016 12.229L29.1032 5.62837ZM39.5008 21.8068L27.939 33.3685L23.4934 28.9228C23.0215 28.4513 22.3817 28.1866 21.7147 28.1868C21.0477 28.1871 20.4081 28.4523 19.9366 28.9241C19.4651 29.3959 19.2003 30.0357 19.2006 30.7028C19.2008 31.3698 19.466 32.0094 19.9378 32.4809L25.9827 38.5258C26.2396 38.7828 26.5446 38.9866 26.8802 39.1257C27.2159 39.2648 27.5757 39.3364 27.939 39.3364C28.3024 39.3364 28.6621 39.2648 28.9978 39.1257C29.3335 38.9866 29.6385 38.7828 29.8953 38.5258L43.0563 25.3623C43.2965 25.1303 43.488 24.8529 43.6198 24.5461C43.7516 24.2393 43.8209 23.9094 43.8239 23.5755C43.8268 23.2416 43.7631 22.9105 43.6367 22.6015C43.5103 22.2924 43.3236 22.0117 43.0875 21.7756C42.8514 21.5395 42.5706 21.3528 42.2616 21.2264C41.9526 21.0999 41.6215 21.0363 41.2876 21.0392C40.9537 21.0421 40.6237 21.1115 40.317 21.2433C40.0102 21.375 39.7327 21.5666 39.5008 21.8068Z" fill="white" fill-opacity="0.89"/>
</g>
<defs>
<clipPath id="clip0_402_270">
<rect width="60.3484" height="60.3484" fill="white" transform="translate(0.694336 0.109009)"/>
</clipPath>
</defs>
</svg>
