<svg width="46" height="53" viewBox="0 0 46 53" fill="none" xmlns="http://www.w3.org/2000/svg">
<path d="M0.816409 37.5008V11.2624C0.816409 8.82271 1.45575 6.87738 2.73444 5.42644C4.01312 3.9755 5.69697 2.87073 7.78599 2.11212C9.87686 1.3535 12.2586 0.847149 14.9312 0.593051C17.6038 0.338953 20.3331 0.212824 23.1191 0.214665C26.1857 0.214665 29.0785 0.341714 31.7976 0.595813C34.5167 0.849911 36.8863 1.35627 38.9066 2.11488C40.9268 2.87349 42.5177 3.97827 43.6793 5.4292C44.8409 6.88014 45.4217 8.82455 45.4217 11.2624V37.5008C45.4217 40.2167 44.4813 42.5073 42.6004 44.3725C40.7196 46.2378 38.4075 47.1695 35.6643 47.1676L39.8461 51.3105V52.6915H34.2704L28.6947 47.1676H17.5434L11.9677 52.6915H6.39207V51.3105L10.5738 47.1676C7.83245 47.1676 5.52041 46.2359 3.6377 44.3725C1.75498 42.5092 0.81455 40.2186 0.816409 37.5008ZM6.39207 22.3102H20.3312V14.0244H6.39207V22.3102ZM25.9069 22.3102H39.8461V14.0244H25.9069V22.3102ZM13.3617 38.8818C14.5697 38.8818 15.5687 38.4905 16.3586 37.708C17.1485 36.9254 17.5434 35.9357 17.5434 34.7389C17.5434 33.5421 17.1485 32.5524 16.3586 31.7698C15.5687 30.9873 14.5697 30.596 13.3617 30.596C12.1536 30.596 11.1546 30.9873 10.3647 31.7698C9.57485 32.5524 9.17991 33.5421 9.17991 34.7389C9.17991 35.9357 9.57485 36.9254 10.3647 37.708C11.1546 38.4905 12.1536 38.8818 13.3617 38.8818ZM32.8765 38.8818C34.0845 38.8818 35.0835 38.4905 35.8734 37.708C36.6633 36.9254 37.0582 35.9357 37.0582 34.7389C37.0582 33.5421 36.6633 32.5524 35.8734 31.7698C35.0835 30.9873 34.0845 30.596 32.8765 30.596C31.6684 30.596 30.6694 30.9873 29.8796 31.7698C29.0897 32.5524 28.6947 33.5421 28.6947 34.7389C28.6947 35.9357 29.0897 36.9254 29.8796 37.708C30.6694 38.4905 31.6684 38.8818 32.8765 38.8818Z" fill="white" fill-opacity="0.89"/>
</svg>
