<svg width="65" height="66" viewBox="0 0 65 66" fill="none" xmlns="http://www.w3.org/2000/svg">
<path d="M51.4114 24.9159C51.4126 21.6661 50.5748 18.471 48.9791 15.6399C47.3833 12.8088 45.0837 10.4376 42.3029 8.75592C39.522 7.07419 36.3541 6.13887 33.1058 6.04048C29.8575 5.9421 26.6388 6.68399 23.7612 8.19434C20.8837 9.70469 18.4448 11.9323 16.6807 14.6617C14.9165 17.391 13.8869 20.5295 13.6914 23.7734C13.4959 27.0174 14.1412 30.2568 15.5649 33.1782C16.9885 36.0996 19.1422 38.6041 21.8175 40.449L13.6572 54.5799L19.741 54.8307L22.9987 59.9733L32.3455 43.7822C32.4103 43.7822 32.4696 43.793 32.5343 43.793C32.599 43.793 32.6584 43.7849 32.7231 43.7822L42.0699 59.9733L45.3923 54.9412L51.4114 54.5799L43.2511 40.449C45.7688 38.7156 47.8272 36.3958 49.2488 33.6898C50.6704 30.9838 51.4126 27.9726 51.4114 24.9159ZM19.0507 24.9159C19.0507 22.2491 19.8415 19.6421 21.3231 17.4248C22.8047 15.2074 24.9105 13.4792 27.3744 12.4586C29.8382 11.4381 32.5493 11.1711 35.1648 11.6913C37.7804 12.2116 40.183 13.4958 42.0687 15.3815C43.9544 17.2672 45.2386 19.6698 45.7589 22.2853C46.2791 24.9009 46.0121 27.612 44.9916 30.0758C43.971 32.5397 42.2428 34.6455 40.0254 36.1271C37.8081 37.6087 35.2011 38.3995 32.5343 38.3995C28.9582 38.3995 25.5286 36.9789 22.9999 34.4502C20.4713 31.9216 19.0507 28.492 19.0507 24.9159Z" fill="white" fill-opacity="0.89"/>
<path d="M32.5345 33.0061C37.0026 33.0061 40.6247 29.384 40.6247 24.9159C40.6247 20.4478 37.0026 16.8257 32.5345 16.8257C28.0664 16.8257 24.4443 20.4478 24.4443 24.9159C24.4443 29.384 28.0664 33.0061 32.5345 33.0061Z" fill="white" fill-opacity="0.89"/>
</svg>
