<svg width="30" height="30" viewBox="0 0 30 30" fill="none" xmlns="http://www.w3.org/2000/svg">
<path d="M14.0958 0.00786994C6.73705 0.248495 0.544966 6.19995 0.0360074 13.5456C-0.502118 21.317 5.05559 27.8839 12.4041 28.9879V18.4485H10.0504C8.99163 18.4485 8.13413 17.591 8.13413 16.5322C8.13413 15.4735 8.99163 14.616 10.0504 14.616H12.4027V12.0654C12.4027 7.84204 14.4604 5.98849 17.9706 5.98849C18.4912 5.98849 18.936 6.00016 19.3137 6.01912C20.2412 6.06433 20.9602 6.83724 20.9602 7.7662C20.9602 8.73308 20.177 9.5162 19.2102 9.5162H18.5656C17.0752 9.5162 16.5545 10.9293 16.5545 12.5218V14.6175H19.2816C20.1435 14.6175 20.8027 15.386 20.6714 16.2377L20.5139 17.26C20.4075 17.9454 19.8183 18.4514 19.1241 18.4514H16.5545V29.02C23.6756 28.0531 29.1662 21.966 29.1662 14.5839C29.1662 6.36766 22.3718 -0.260463 14.0958 0.00786994Z" fill="white"/>
</svg>
