<svg width="20" height="10" viewBox="0 0 20 10" fill="none" xmlns="http://www.w3.org/2000/svg">
<path d="M19.2967 2.53367L10.5655 8.80303C10.4615 8.87744 10.3489 8.93024 10.2278 8.96144C10.1066 8.99264 9.97676 9.00793 9.83832 9.00733C9.69987 9.00723 9.5701 8.99174 9.44901 8.96086C9.32791 8.92998 9.2155 8.87701 9.11177 8.80194L0.372821 2.51954C0.130793 2.34555 0.00996808 2.12819 0.0103463 1.86747C0.0107245 1.60676 0.140842 1.38338 0.400698 1.19735C0.660554 1.01131 0.96354 0.918424 1.30966 0.918682C1.65577 0.918941 1.95849 1.01228 2.2178 1.1987L9.84169 6.67949L17.4815 1.2101C17.724 1.03647 18.0228 0.949782 18.3779 0.950047C18.7331 0.950312 19.0399 1.04366 19.2985 1.23008C19.5579 1.4165 19.6873 1.63386 19.687 1.88216C19.6866 2.13047 19.5565 2.34764 19.2967 2.53367Z" fill="#787676"/>
</svg>
