<svg width="40" height="39" viewBox="0 0 40 39" fill="none" xmlns="http://www.w3.org/2000/svg">
<path d="M19.5203 3.65039C10.5735 3.65039 3.25342 10.8527 3.25342 19.6555C3.25342 28.4584 10.5735 35.6607 19.5203 35.6607C28.4671 35.6607 35.7872 28.4584 35.7872 19.6555C35.7872 10.8527 28.4671 3.65039 19.5203 3.65039ZM19.5203 32.4597C12.3466 32.4597 6.5068 26.7138 6.5068 19.6555C6.5068 12.5973 12.3466 6.85142 19.5203 6.85142C26.694 6.85142 32.5338 12.5973 32.5338 19.6555C32.5338 26.7138 26.694 32.4597 19.5203 32.4597ZM26.9868 12.5813L16.2669 23.1287L12.0538 18.9993L9.76017 21.2561L16.2669 27.6581L29.2804 14.854L26.9868 12.5813Z" fill="#00DD3E"/>
</svg>
