<svg width="33" height="33" viewBox="0 0 33 33" fill="none" xmlns="http://www.w3.org/2000/svg">
<path d="M16.5 3.3C12.9991 3.3 9.64167 4.69071 7.16619 7.16619C4.69071 9.64167 3.3 12.9991 3.3 16.5C3.3 20.0009 4.69071 23.3583 7.16619 25.8338C9.64167 28.3093 12.9991 29.7 16.5 29.7C20.0009 29.7 23.3583 28.3093 25.8338 25.8338C28.3093 23.3583 29.7 20.0009 29.7 16.5C29.7 12.9991 28.3093 9.64167 25.8338 7.16619C23.3583 4.69071 20.0009 3.3 16.5 3.3ZM0 16.5C0 7.38705 7.38705 0 16.5 0C25.6129 0 33 7.38705 33 16.5C33 25.6129 25.6129 33 16.5 33C7.38705 33 0 25.6129 0 16.5ZM9.55845 9.55845C9.86787 9.24912 10.2875 9.07535 10.725 9.07535C11.1625 9.07535 11.5821 9.24912 11.8915 9.55845L16.5 14.1669L21.1085 9.55845C21.2607 9.40086 21.4427 9.27516 21.644 9.18868C21.8453 9.10221 22.0619 9.05669 22.2809 9.05479C22.5 9.05288 22.7173 9.09463 22.9201 9.17759C23.1229 9.26056 23.3071 9.38307 23.462 9.538C23.6169 9.69292 23.7394 9.87715 23.8224 10.0799C23.9054 10.2827 23.9471 10.5 23.9452 10.7191C23.9433 10.9381 23.8978 11.1547 23.8113 11.356C23.7248 11.5573 23.5991 11.7393 23.4416 11.8915L18.8331 16.5L23.4416 21.1085C23.7421 21.4196 23.9084 21.8364 23.9047 22.2691C23.9009 22.7017 23.7274 23.1155 23.4215 23.4215C23.1155 23.7274 22.7017 23.9009 22.2691 23.9047C21.8364 23.9084 21.4196 23.7421 21.1085 23.4416L16.5 18.8331L11.8915 23.4416C11.5804 23.7421 11.1636 23.9084 10.7309 23.9047C10.2983 23.9009 9.88447 23.7274 9.57855 23.4215C9.27263 23.1155 9.0991 22.7017 9.09534 22.2691C9.09158 21.8364 9.25789 21.4196 9.55845 21.1085L14.1669 16.5L9.55845 11.8915C9.24912 11.5821 9.07535 11.1625 9.07535 10.725C9.07535 10.2875 9.24912 9.86787 9.55845 9.55845Z" fill="#D31111"/>
</svg>
