<svg width="23" height="23" viewBox="0 0 23 23" fill="none" xmlns="http://www.w3.org/2000/svg">
<path d="M11.5 13.775L3.53755 21.7375C3.23963 22.0355 2.86047 22.1844 2.40005 22.1844C1.93963 22.1844 1.56046 22.0355 1.26255 21.7375C0.964632 21.4396 0.815674 21.0605 0.815674 20.6C0.815674 20.1396 0.964632 19.7605 1.26255 19.4625L9.22505 11.5L1.26255 3.53755C0.964632 3.23963 0.815674 2.86047 0.815674 2.40005C0.815674 1.93963 0.964632 1.56046 1.26255 1.26255C1.56046 0.964632 1.93963 0.815674 2.40005 0.815674C2.86047 0.815674 3.23963 0.964632 3.53755 1.26255L11.5 9.22505L19.4625 1.26255C19.7605 0.964632 20.1396 0.815674 20.6 0.815674C21.0605 0.815674 21.4396 0.964632 21.7375 1.26255C22.0355 1.56046 22.1844 1.93963 22.1844 2.40005C22.1844 2.86047 22.0355 3.23963 21.7375 3.53755L13.775 11.5L21.7375 19.4625C22.0355 19.7605 22.1844 20.1396 22.1844 20.6C22.1844 21.0605 22.0355 21.4396 21.7375 21.7375C21.4396 22.0355 21.0605 22.1844 20.6 22.1844C20.1396 22.1844 19.7605 22.0355 19.4625 21.7375L11.5 13.775Z" fill="white"/>
</svg>
