<svg width="26" height="25" viewBox="0 0 26 25" fill="none" xmlns="http://www.w3.org/2000/svg">
<path d="M23.6227 10.5229H22.7501V10.481H13.0001V14.5189H19.1225C18.2293 16.8695 15.8292 18.5568 13.0001 18.5568C9.41046 18.5568 6.50008 15.8448 6.50008 12.5C6.50008 9.15509 9.41046 6.44315 13.0001 6.44315C14.657 6.44315 16.1645 7.02562 17.3123 7.97704L20.3765 5.12176C18.4417 3.44149 15.8536 2.40527 13.0001 2.40527C7.01737 2.40527 2.16675 6.92517 2.16675 12.5C2.16675 18.0748 7.01737 22.5947 13.0001 22.5947C18.9828 22.5947 23.8334 18.0748 23.8334 12.5C23.8334 11.8231 23.7587 11.1624 23.6227 10.5229Z" fill="#FFC107"/>
<path d="M3.41577 7.80139L6.97506 10.2337C7.93815 8.01187 10.2706 6.44315 13 6.44315C14.657 6.44315 16.1644 7.02561 17.3122 7.97704L20.3764 5.12175C18.4416 3.44149 15.8535 2.40527 13 2.40527C8.83894 2.40527 5.23035 4.59431 3.41577 7.80139Z" fill="#FF3D00"/>
<path d="M13.0001 22.5946C15.7983 22.5946 18.3409 21.5968 20.2633 19.9741L16.9104 17.3303C15.7862 18.1269 14.4125 18.5578 13.0001 18.5568C10.1823 18.5568 7.7898 16.8826 6.88846 14.5461L3.35571 17.0824C5.14863 20.3516 8.78971 22.5946 13.0001 22.5946Z" fill="#4CAF50"/>
<path d="M23.6226 10.5229H22.75V10.481H13V14.5188H19.1225C18.6952 15.6375 17.9256 16.6151 16.9087 17.3307L16.9103 17.3297L20.2632 19.9735C20.026 20.1744 23.8333 17.5472 23.8333 12.4999C23.8333 11.823 23.7586 11.1623 23.6226 10.5229Z" fill="#1976D2"/>
</svg>
