<svg width="207" height="185" viewBox="0 0 207 185" fill="none" xmlns="http://www.w3.org/2000/svg">
<path d="M31.0648 56.6511C26.61 56.8705 23.1844 60.6509 23.4037 65.1057C23.7013 71.149 32.1983 79.6735 32.1983 79.6735C32.1983 79.6735 39.8169 70.3556 39.5194 64.3122C39.3001 59.8574 35.5197 56.4318 31.0648 56.6511ZM31.6033 67.5867C30.84 67.6243 30.0931 67.3572 29.5268 66.844C28.9606 66.3309 28.6213 65.6139 28.5838 64.8506C28.5462 64.0874 28.8133 63.3405 29.3265 62.7742C29.8396 62.208 30.5566 61.8687 31.3199 61.8312C32.0831 61.7936 32.83 62.0607 33.3963 62.5739C33.9625 63.087 34.3018 63.804 34.3394 64.5673C34.3769 65.3305 34.1098 66.0774 33.5967 66.6437C33.0835 67.2099 32.3665 67.5492 31.6033 67.5867Z" fill="#F4260A"/>
<path d="M181.003 82.5551C176.559 82.9306 173.268 86.8289 173.643 91.2733C174.153 97.3025 182.944 105.524 182.944 105.524C182.944 105.524 190.231 95.944 189.721 89.9148C189.346 85.4704 185.447 82.1796 181.003 82.5551ZM181.925 93.4651C181.163 93.5294 180.408 93.2887 179.824 92.7957C179.24 92.3028 178.875 91.5981 178.811 90.8366C178.747 90.0752 178.988 89.3194 179.481 88.7354C179.973 88.1515 180.678 87.7873 181.44 87.723C182.201 87.6587 182.957 87.8994 183.541 88.3924C184.125 88.8853 184.489 89.59 184.553 90.3514C184.618 91.1129 184.377 91.8687 183.884 92.4526C183.391 93.0366 182.686 93.4008 181.925 93.4651Z" fill="#F4260A"/>
<path d="M42.6183 73.3147L65.5904 55.56L84.367 41.0478C87.1494 38.8973 90.2278 37.1599 93.5068 35.8895L100.7 33.1022C107.436 30.4923 115.026 31.3734 120.985 35.4569V35.4569C125.225 38.3625 128.308 42.6672 129.693 47.6171L129.839 48.1388C131.142 52.7971 130.969 57.745 129.343 62.3007L128.328 65.1431C127.359 67.856 126.039 70.4299 124.399 72.7986L117.864 82.2428L107.042 95.6507L98.7861 105.88C97.0781 107.996 95.5356 110.24 94.1721 112.593L89.9384 119.899C89.0108 121.499 88.2413 123.186 87.6406 124.936L85.6932 130.609C83.7944 136.14 84.8042 142.254 88.3801 146.881V146.881C90.5303 149.663 93.4736 151.728 96.8215 152.802L98.7612 153.424C103.742 155.023 109.108 154.946 114.041 153.206L120.253 151.014C124.622 149.473 128.717 147.243 132.383 144.41L151.005 130.017L175.161 111.347" stroke="white" stroke-width="2" stroke-linejoin="round" stroke-dasharray="10 10"/>
</svg>
