<svg width="28" height="28" viewBox="0 0 28 28" fill="none" xmlns="http://www.w3.org/2000/svg">
<path d="M8.09714 0C3.7236 0 0.166016 3.56088 0.166016 7.93555V19.2689C0.166016 23.6424 3.7269 27.2 8.10156 27.2H19.4349C23.8084 27.2 27.366 23.6391 27.366 19.2645V7.93112C27.366 3.55759 23.8051 0 19.4305 0H8.09714ZM21.6994 4.53333C22.325 4.53333 22.8327 5.04107 22.8327 5.66667C22.8327 6.29227 22.325 6.8 21.6994 6.8C21.0738 6.8 20.566 6.29227 20.566 5.66667C20.566 5.04107 21.0738 4.53333 21.6994 4.53333ZM13.766 6.8C17.5162 6.8 20.566 9.8498 20.566 13.6C20.566 17.3502 17.5162 20.4 13.766 20.4C10.0158 20.4 6.96602 17.3502 6.96602 13.6C6.96602 9.8498 10.0158 6.8 13.766 6.8ZM13.766 9.06667C12.5637 9.06667 11.4106 9.54428 10.5605 10.3944C9.7103 11.2446 9.23269 12.3977 9.23269 13.6C9.23269 14.8023 9.7103 15.9554 10.5605 16.8055C11.4106 17.6557 12.5637 18.1333 13.766 18.1333C14.9683 18.1333 16.1214 17.6557 16.9716 16.8055C17.8217 15.9554 18.2994 14.8023 18.2994 13.6C18.2994 12.3977 17.8217 11.2446 16.9716 10.3944C16.1214 9.54428 14.9683 9.06667 13.766 9.06667Z" fill="white"/>
</svg>
